<svg width="42" height="45" viewBox="0 0 42 45" fill="none" xmlns="http://www.w3.org/2000/svg">
<rect x="0.5" y="0.707031" width="41" height="43" rx="7.5" fill="#EEE8FA"/>
<rect x="0.5" y="0.707031" width="41" height="43" rx="7.5" stroke="white"/>
<path d="M27.513 36.207C29.166 36.207 30.5 34.928 30.5 33.358V29.824C30.5 25.063 26.358 21.207 21.25 21.207C16.142 21.207 12 25.063 12 29.824V33.358C12 34.928 13.334 36.207 14.987 36.207H27.513Z" fill="#FF8101"/>
<path d="M21.25 25.207C20.007 25.207 19 24.221 19 23.004V20.41C19 19.193 20.007 18.207 21.25 18.207C22.493 18.207 23.5 19.193 23.5 20.41V23.004C23.5 24.221 22.493 25.207 21.25 25.207Z" fill="#F4C6AD"/>
<path d="M15.5 31.207H12V29.824C12 27.164 13.292 24.787 15.324 23.207H15.5V31.207ZM27 31.207H30.5V29.824C30.5 27.164 29.207 24.787 27.176 23.207H27V31.207Z" fill="#FF6723"/>
<path d="M27.3891 11.427C27.0991 10.917 26.6391 10.567 26.1191 10.387C25.5591 10.197 25.0691 9.83703 24.7691 9.32703C24.561 8.98565 24.2687 8.7034 23.9203 8.5073C23.5719 8.3112 23.179 8.20781 22.7791 8.20703C22.4591 8.20703 22.1491 8.27703 21.8691 8.39703C21.4891 8.55703 21.0591 8.55703 20.6791 8.39703C20.3891 8.27703 20.0891 8.20703 19.7591 8.20703C18.9291 8.20703 18.1991 8.63703 17.7891 9.29703C17.4691 9.80703 16.9791 10.187 16.4091 10.387C15.8691 10.577 15.3991 10.957 15.1091 11.497C14.6891 12.287 14.7791 13.217 15.2491 13.917C15.4191 14.167 15.5191 14.477 15.5191 14.777V18.857C15.5191 19.767 16.0991 20.577 16.9591 20.877L18.8091 21.517V14.247C18.9491 14.107 19.0791 13.947 19.1791 13.757C19.3491 13.467 19.4391 13.157 19.4791 12.847C19.7987 12.8871 20.1231 12.8598 20.4314 12.7668C20.7397 12.6738 21.0251 12.5171 21.2691 12.307C21.6791 12.657 22.1991 12.867 22.7791 12.867C22.8691 12.867 22.9591 12.857 23.0591 12.847C23.0891 13.157 23.1891 13.467 23.3591 13.757C23.4691 13.937 23.5891 14.097 23.7291 14.247V21.517L25.5791 20.877C26.4391 20.577 27.0191 19.767 27.0191 18.857V14.787C27.0191 14.477 27.1091 14.177 27.2891 13.927C27.7791 13.207 27.8591 12.237 27.3891 11.427Z" fill="#212121"/>
<path d="M18 16.707C18 17.1049 17.842 17.4864 17.5607 17.7677C17.2794 18.049 16.8978 18.207 16.5 18.207C16.1022 18.207 15.7206 18.049 15.4393 17.7677C15.158 17.4864 15 17.1049 15 16.707C15 16.3092 15.158 15.9277 15.4393 15.6464C15.7206 15.3651 16.1022 15.207 16.5 15.207C16.8978 15.207 17.2794 15.3651 17.5607 15.6464C17.842 15.9277 18 16.3092 18 16.707ZM27.5 16.707C27.5 17.1049 27.342 17.4864 27.0607 17.7677C26.7794 18.049 26.3978 18.207 26 18.207C25.6022 18.207 25.2206 18.049 24.9393 17.7677C24.658 17.4864 24.5 17.1049 24.5 16.707C24.5 16.3092 24.658 15.9277 24.9393 15.6464C25.2206 15.3651 25.6022 15.207 26 15.207C26.3978 15.207 26.7794 15.3651 27.0607 15.6464C27.342 15.9277 27.5 16.3092 27.5 16.707Z" fill="#F4C6AD"/>
<path d="M19.5491 10.8477C18.6633 10.8477 17.8137 11.1995 17.1874 11.8259C16.561 12.4523 16.2091 13.3018 16.2091 14.1877L16.1211 15.1797L16.4031 19.3847C16.6671 21.2937 18.3311 22.7077 20.3111 22.7077H22.1981C24.1681 22.7077 25.8421 21.2837 26.1061 19.3847L26.4091 14.6007L26.4191 14.1777C26.4258 13.985 26.3937 13.7929 26.3248 13.6129C26.2559 13.4328 26.1515 13.2684 26.0179 13.1295C25.8842 12.9905 25.724 12.8798 25.5468 12.8039C25.3696 12.728 25.1789 12.6885 24.9861 12.6877H23.6491C22.6991 12.6877 21.8291 12.1377 21.4391 11.2677C21.3888 11.1443 21.303 11.0385 21.1927 10.9638C21.0823 10.8891 20.9524 10.8486 20.8191 10.8477H19.5491Z" fill="#FFD7C2"/>
<path d="M22.2489 19.958C22.197 19.9579 22.1464 19.9419 22.1039 19.912C21.8388 19.7775 21.5457 19.7075 21.2484 19.7075C20.9512 19.7075 20.6581 19.7775 20.3929 19.912C20.3388 19.9497 20.272 19.9645 20.207 19.9531C20.142 19.9418 20.0841 19.9052 20.046 19.8513C20.0079 19.7975 19.9926 19.7308 20.0034 19.6657C20.0143 19.6007 20.0504 19.5425 20.1039 19.504C20.4543 19.3092 20.8486 19.207 21.2494 19.207C21.6503 19.207 22.0445 19.3092 22.3949 19.504C22.4379 19.5348 22.4699 19.5786 22.4865 19.6288C22.503 19.6791 22.5032 19.7333 22.487 19.7837C22.4707 19.834 22.4389 19.8779 22.3962 19.9091C22.3534 19.9402 22.3018 19.957 22.2489 19.957V19.958Z" fill="#990838"/>
<path d="M20.9007 16.4695L20.3907 18.0555C20.2807 18.3765 20.5407 18.7075 20.9007 18.7075H21.6707C22.0307 18.7075 22.2907 18.3775 22.1807 18.0555L21.6507 16.4695C21.5407 16.1195 21.0207 16.1195 20.9007 16.4695Z" fill="#E5AF93"/>
<path d="M17.9902 29.4574L26.8502 30.9974H30.5002V33.4474C30.5002 34.3274 30.0502 35.1574 29.3002 35.6774C28.7902 36.0274 28.1802 36.2074 27.5702 36.2074H27.5602C27.1302 36.2074 26.7102 36.0874 26.3202 35.8874L14.4102 31.2074C14.4102 31.2074 14.9802 28.8574 17.9902 29.4574Z" fill="#F4C6AD"/>
<path d="M24.51 29.5632L15.65 31.2072H12V33.4272C12 34.3072 12.45 35.1372 13.2 35.6572C13.71 36.0072 14.32 36.1872 14.93 36.1872H14.94C15.37 36.1872 15.79 36.0672 16.18 35.8672L28.03 31.1032C28.02 31.1032 27.52 28.9632 24.51 29.5632Z" fill="#FFD7C2"/>
<path d="M20.4803 16.459C20.5023 16.595 20.3883 16.708 20.2503 16.708H17.7503C17.6123 16.708 17.4983 16.595 17.5203 16.459C17.5782 16.1082 17.7587 15.7894 18.0298 15.5594C18.3009 15.3294 18.6448 15.2031 19.0003 15.2031C19.3558 15.2031 19.6998 15.3294 19.9708 15.5594C20.2419 15.7894 20.4224 16.1082 20.4803 16.459ZM24.9623 16.459C24.9853 16.595 24.8703 16.708 24.7323 16.708H22.2323C22.0943 16.708 21.9803 16.595 22.0023 16.459C22.0602 16.1082 22.2407 15.7894 22.5118 15.5594C22.7829 15.3294 23.1268 15.2031 23.4823 15.2031C23.8378 15.2031 24.1818 15.3294 24.4528 15.5594C24.7239 15.7894 24.9044 16.1082 24.9623 16.459Z" fill="white"/>
<path d="M20 16.3311C20 16.4651 19.97 16.5921 19.916 16.7061H18.334C18.2779 16.5876 18.2492 16.4579 18.25 16.3268C18.2508 16.1956 18.2811 16.0663 18.3386 15.9484C18.3961 15.8306 18.4793 15.7271 18.5822 15.6457C18.6851 15.5644 18.8049 15.5072 18.9329 15.4784C19.0608 15.4496 19.1936 15.4499 19.3214 15.4794C19.4492 15.5088 19.5688 15.5666 19.6712 15.6485C19.7737 15.7303 19.8564 15.8342 19.9133 15.9524C19.9702 16.0705 19.9999 16.2 20 16.3311ZM24.25 16.3311C24.25 16.4651 24.22 16.5921 24.166 16.7061H22.584C22.5279 16.5876 22.4992 16.4579 22.5 16.3268C22.5008 16.1956 22.5311 16.0663 22.5886 15.9484C22.6461 15.8306 22.7293 15.7271 22.8322 15.6457C22.9351 15.5644 23.0549 15.5072 23.1829 15.4784C23.3108 15.4496 23.4436 15.4499 23.5714 15.4794C23.6992 15.5088 23.8188 15.5666 23.9212 15.6485C24.0237 15.7303 24.1064 15.8342 24.1633 15.9524C24.2202 16.0705 24.2499 16.2 24.25 16.3311Z" fill="#7D4533"/>
<path d="M19.6248 16.3262C19.6249 16.3984 19.6093 16.4698 19.5791 16.5354C19.5488 16.601 19.5047 16.6593 19.4498 16.7062H18.7998C18.7216 16.64 18.6656 16.5513 18.6395 16.4522C18.6134 16.3532 18.6184 16.2484 18.654 16.1523C18.6895 16.0562 18.7537 15.9733 18.8379 15.915C18.9222 15.8566 19.0223 15.8256 19.1248 15.8262C19.2574 15.8262 19.3846 15.8789 19.4784 15.9726C19.5721 16.0664 19.6248 16.1936 19.6248 16.3262ZM23.8748 16.3262C23.8749 16.3984 23.8593 16.4698 23.8291 16.5354C23.7988 16.601 23.7547 16.6593 23.6998 16.7062H23.0498C22.9716 16.64 22.9156 16.5513 22.8895 16.4522C22.8634 16.3532 22.8684 16.2484 22.9039 16.1523C22.9395 16.0562 23.0037 15.9733 23.0879 15.915C23.1722 15.8566 23.2723 15.8256 23.3748 15.8262C23.5074 15.8262 23.6346 15.8789 23.7284 15.9726C23.8221 16.0664 23.8748 16.1936 23.8748 16.3262Z" fill="#252C32"/>
<path d="M18.7996 16.107C18.8527 16.107 18.9035 16.086 18.941 16.0485C18.9785 16.0109 18.9996 15.9601 18.9996 15.907C18.9996 15.854 18.9785 15.8031 18.941 15.7656C18.9035 15.7281 18.8527 15.707 18.7996 15.707C18.7466 15.707 18.6957 15.7281 18.6582 15.7656C18.6207 15.8031 18.5996 15.854 18.5996 15.907C18.5996 15.9601 18.6207 16.0109 18.6582 16.0485C18.6957 16.086 18.7466 16.107 18.7996 16.107ZM23.0496 16.107C23.1027 16.107 23.1535 16.086 23.191 16.0485C23.2285 16.0109 23.2496 15.9601 23.2496 15.907C23.2496 15.854 23.2285 15.8031 23.191 15.7656C23.1535 15.7281 23.1027 15.707 23.0496 15.707C22.9966 15.707 22.9457 15.7281 22.9082 15.7656C22.8707 15.8031 22.8496 15.854 22.8496 15.907C22.8496 15.9601 22.8707 16.0109 22.9082 16.0485C22.9457 16.086 22.9966 16.107 23.0496 16.107Z" fill="white"/>
<path d="M21.957 20.7067H20.543C20.5947 20.5606 20.6905 20.4341 20.8171 20.3446C20.9437 20.2551 21.0949 20.207 21.25 20.207C21.405 20.207 21.5562 20.2551 21.6829 20.3446C21.8095 20.4341 21.9052 20.5606 21.957 20.7067Z" fill="#F1B99B"/>
<path d="M17.75 14.207C17.6837 14.207 17.6201 14.2334 17.5732 14.2803C17.5263 14.3271 17.5 14.3907 17.5 14.457C17.5 14.5233 17.5263 14.5869 17.5732 14.6338C17.6201 14.6807 17.6837 14.707 17.75 14.707H19.75C19.8163 14.707 19.8799 14.6807 19.9268 14.6338C19.9737 14.5869 20 14.5233 20 14.457C20 14.3907 19.9737 14.3271 19.9268 14.2803C19.8799 14.2334 19.8163 14.207 19.75 14.207H17.75ZM22.75 14.207C22.6837 14.207 22.6201 14.2334 22.5732 14.2803C22.5263 14.3271 22.5 14.3907 22.5 14.457C22.5 14.5233 22.5263 14.5869 22.5732 14.6338C22.6201 14.6807 22.6837 14.707 22.75 14.707H24.75C24.8163 14.707 24.8799 14.6807 24.9268 14.6338C24.9737 14.5869 25 14.5233 25 14.457C25 14.3907 24.9737 14.3271 24.9268 14.2803C24.8799 14.2334 24.8163 14.207 24.75 14.207H22.75Z" fill="#212121"/>
</svg>
