<svg width="21" height="22" viewBox="0 0 21 22" fill="none" xmlns="http://www.w3.org/2000/svg">
<path d="M3.94336 3.78516L17.0684 18.2227" stroke="#252C32" stroke-width="1.5" stroke-linecap="round" stroke-linejoin="round"/>
<path d="M12.7122 13.4324C12.11 13.9841 11.3221 14.2886 10.5055 14.2855C9.84324 14.2855 9.1965 14.085 8.65029 13.7105C8.10409 13.336 7.684 12.8049 7.44525 12.1872C7.2065 11.5695 7.16026 10.8939 7.31262 10.2494C7.46497 9.60494 7.80879 9.02162 8.29887 8.57617" stroke="#252C32" stroke-width="1.5" stroke-linecap="round" stroke-linejoin="round"/>
<path d="M6.07617 6.13086C2.7293 7.8207 1.31836 11.0035 1.31836 11.0035C1.31836 11.0035 3.94336 16.9098 10.5059 16.9098C12.0436 16.9223 13.5622 16.568 14.9355 15.8762" stroke="#252C32" stroke-width="1.5" stroke-linecap="round" stroke-linejoin="round"/>
<path d="M17.1184 14.3754C18.9066 12.7758 19.6941 11.0039 19.6941 11.0039C19.6941 11.0039 17.0691 5.09768 10.5066 5.09768C9.93772 5.09655 9.36971 5.1432 8.80859 5.23713" stroke="#252C32" stroke-width="1.5" stroke-linecap="round" stroke-linejoin="round"/>
<path d="M11.1211 7.7793C11.8189 7.91151 12.4547 8.26711 12.9327 8.79242C13.4107 9.31773 13.7048 9.98426 13.7707 10.6914" stroke="#252C32" stroke-width="1.5" stroke-linecap="round" stroke-linejoin="round"/>
</svg>
