<svg width="88" height="88" viewBox="0 0 88 88" fill="none" xmlns="http://www.w3.org/2000/svg">
<path opacity="0.5" d="M11 36.6663C11 22.8393 11 15.924 15.2973 11.6303C19.591 7.33301 26.5063 7.33301 40.3333 7.33301H47.6667C61.4937 7.33301 68.409 7.33301 72.7027 11.6303C77 15.924 77 22.8393 77 36.6663V51.333C77 65.16 77 72.0753 72.7027 76.369C68.409 80.6663 61.4937 80.6663 47.6667 80.6663H40.3333C26.5063 80.6663 19.591 80.6663 15.2973 76.369C11 72.0753 11 65.16 11 51.333V36.6663Z" stroke="#4285F4" stroke-width="1.5"/>
<path d="M29.332 36.666H58.6654M29.332 51.3327H47.6654" stroke="#4285F4" stroke-width="1.5" stroke-linecap="round"/>
</svg>
