<svg width="22" height="22" viewBox="0 0 22 22" fill="none" xmlns="http://www.w3.org/2000/svg">
<path d="M16.1105 7.43805H15.2184V5.65386C15.2184 3.19166 13.2201 1.19336 10.7579 1.19336C8.29569 1.19336 6.29739 3.19166 6.29739 5.65386V7.43805H5.40529C4.42398 7.43805 3.62109 8.24094 3.62109 9.22225V18.1432C3.62109 19.1246 4.42398 19.9274 5.40529 19.9274H16.1105C17.0918 19.9274 17.8947 19.1246 17.8947 18.1432V9.22225C17.8947 8.24094 17.0918 7.43805 16.1105 7.43805ZM8.08159 5.65386C8.08159 4.17297 9.277 2.97756 10.7579 2.97756C12.2388 2.97756 13.4342 4.17297 13.4342 5.65386V7.43805H8.08159V5.65386ZM16.1105 18.1432H5.40529V9.22225H16.1105V18.1432ZM10.7579 15.4669C11.7392 15.4669 12.5421 14.6641 12.5421 13.6827C12.5421 12.7014 11.7392 11.8986 10.7579 11.8986C9.77658 11.8986 8.97369 12.7014 8.97369 13.6827C8.97369 14.6641 9.77658 15.4669 10.7579 15.4669Z" fill="#7F8DA4"/>
</svg>
