<svg width="22" height="22" viewBox="0 0 22 22" fill="none" xmlns="http://www.w3.org/2000/svg">
<path d="M10.7578 3.8125C11.7041 3.8125 12.6118 4.18845 13.281 4.85764C13.9501 5.52683 14.3261 6.43445 14.3261 7.38083C14.3261 8.32721 13.9501 9.23483 13.281 9.90403C12.6118 10.5732 11.7041 10.9492 10.7578 10.9492C9.81138 10.9492 8.90376 10.5732 8.23457 9.90403C7.56538 9.23483 7.18943 8.32721 7.18943 7.38083C7.18943 6.43445 7.56538 5.52683 8.23457 4.85764C8.90376 4.18845 9.81138 3.8125 10.7578 3.8125ZM10.7578 5.59667C10.2846 5.59667 9.83076 5.78464 9.49616 6.11924C9.16157 6.45383 8.97359 6.90764 8.97359 7.38083C8.97359 7.85402 9.16157 8.30783 9.49616 8.64243C9.83076 8.97703 10.2846 9.165 10.7578 9.165C11.231 9.165 11.6848 8.97703 12.0194 8.64243C12.354 8.30783 12.5419 7.85402 12.5419 7.38083C12.5419 6.90764 12.354 6.45383 12.0194 6.11924C11.6848 5.78464 11.231 5.59667 10.7578 5.59667ZM10.7578 11.8412C13.1396 11.8412 17.8944 13.0277 17.8944 15.4096V18.0858H3.62109V15.4096C3.62109 13.0277 8.3759 11.8412 10.7578 11.8412ZM10.7578 13.5362C8.10827 13.5362 5.31605 14.8386 5.31605 15.4096V16.3909H16.1995V15.4096C16.1995 14.8386 13.4072 13.5362 10.7578 13.5362Z" fill="#7F8DA4"/>
</svg>
