<svg width="22" height="22" viewBox="0 0 22 22" fill="none" xmlns="http://www.w3.org/2000/svg">
<path d="M14.7711 5.71484H6.74219V9.72929H14.7711V5.71484Z" stroke="#7F8DA4" stroke-width="1.60578" stroke-linecap="round" stroke-linejoin="round"/>
<path d="M17.4473 18.4278V3.70814C17.4473 3.33862 17.1477 3.03906 16.7782 3.03906L4.73485 3.03906C4.36533 3.03906 4.06578 3.33862 4.06578 3.70814L4.06578 18.4278C4.06578 18.7973 4.36533 19.0968 4.73485 19.0968H16.7782C17.1477 19.0968 17.4473 18.7973 17.4473 18.4278Z" stroke="#7F8DA4" stroke-width="1.60578" stroke-linecap="round" stroke-linejoin="round"/>
<path d="M7.41181 13.7436C7.96609 13.7436 8.41543 13.2942 8.41543 12.7399C8.41543 12.1857 7.96609 11.7363 7.41181 11.7363C6.85754 11.7363 6.4082 12.1857 6.4082 12.7399C6.4082 13.2942 6.85754 13.7436 7.41181 13.7436Z" fill="#7F8DA4"/>
<path d="M10.7575 13.7436C11.3118 13.7436 11.7611 13.2942 11.7611 12.7399C11.7611 12.1857 11.3118 11.7363 10.7575 11.7363C10.2032 11.7363 9.75391 12.1857 9.75391 12.7399C9.75391 13.2942 10.2032 13.7436 10.7575 13.7436Z" fill="#7F8DA4"/>
<path d="M14.1032 13.7436C14.6575 13.7436 15.1068 13.2942 15.1068 12.7399C15.1068 12.1857 14.6575 11.7363 14.1032 11.7363C13.5489 11.7363 13.0996 12.1857 13.0996 12.7399C13.0996 13.2942 13.5489 13.7436 14.1032 13.7436Z" fill="#7F8DA4"/>
<path d="M7.41181 17.0893C7.96609 17.0893 8.41543 16.6399 8.41543 16.0856C8.41543 15.5314 7.96609 15.082 7.41181 15.082C6.85754 15.082 6.4082 15.5314 6.4082 16.0856C6.4082 16.6399 6.85754 17.0893 7.41181 17.0893Z" fill="#7F8DA4"/>
<path d="M10.7575 17.0893C11.3118 17.0893 11.7611 16.6399 11.7611 16.0856C11.7611 15.5314 11.3118 15.082 10.7575 15.082C10.2032 15.082 9.75391 15.5314 9.75391 16.0856C9.75391 16.6399 10.2032 17.0893 10.7575 17.0893Z" fill="#7F8DA4"/>
<path d="M14.1032 17.0893C14.6575 17.0893 15.1068 16.6399 15.1068 16.0856C15.1068 15.5314 14.6575 15.082 14.1032 15.082C13.5489 15.082 13.0996 15.5314 13.0996 16.0856C13.0996 16.6399 13.5489 17.0893 14.1032 17.0893Z" fill="#7F8DA4"/>
</svg>
