<svg width="81" height="80" viewBox="0 0 81 80" fill="none" xmlns="http://www.w3.org/2000/svg">
<path d="M45.5382 35.7953V31.147C45.5382 29.0984 44.7244 27.1338 43.2758 25.6852C41.8273 24.2366 39.8626 23.4229 37.814 23.4229C35.7654 23.4229 33.8008 24.2366 32.3522 25.6852C30.9036 27.1338 30.0898 29.0984 30.0898 31.147V35.7337" stroke="#4285F4" stroke-linecap="round" stroke-linejoin="round"/>
<path d="M37.8133 48.2605C39.2981 48.2605 40.5017 47.0568 40.5017 45.5721C40.5017 44.0874 39.2981 42.8838 37.8133 42.8838C36.3286 42.8838 35.125 44.0874 35.125 45.5721C35.125 47.0568 36.3286 48.2605 37.8133 48.2605Z" stroke="#4285F4" stroke-linecap="round" stroke-linejoin="round"/>
<path d="M37.8125 50.8904V48.3438" stroke="#4285F4" stroke-linecap="round" stroke-linejoin="round"/>
<path d="M42.6105 35.1631H33.0138C29.7507 35.1631 27.1055 37.8083 27.1055 41.0714V50.6681C27.1055 53.9312 29.7507 56.5764 33.0138 56.5764H42.6105C45.8736 56.5764 48.5188 53.9312 48.5188 50.6681V41.0714C48.5188 37.8083 45.8736 35.1631 42.6105 35.1631Z" stroke="#4285F4" stroke-linecap="round" stroke-linejoin="round"/>
<path d="M71.2461 57.9137C68.1013 63.3609 63.5781 67.8843 58.131 71.0294C52.684 74.1744 46.505 75.8302 40.2152 75.8303C33.9254 75.8305 27.7464 74.1749 22.2992 71.0301C16.852 67.8853 12.3286 63.362 9.1836 57.9149C6.03862 52.4678 4.38288 46.2889 4.38281 39.9991C4.38274 33.7092 6.03834 27.5302 9.18321 22.0831C12.3281 16.6359 16.8514 12.1125 22.2985 8.96761C27.7456 5.82268 33.9246 4.167 40.2144 4.16699" stroke="#4285F4" stroke-linecap="round" stroke-linejoin="round"/>
</svg>
