<svg width="81" height="80" viewBox="0 0 81 80" fill="none" xmlns="http://www.w3.org/2000/svg">
<path d="M43.8345 73.3337H22.4678C17.3178 73.3337 13.2212 70.827 9.54451 67.3237C2.01117 60.147 14.3778 54.4137 19.0945 51.607C25.5445 47.7885 33.0393 46.1138 40.5012 46.8237M68.5012 68.0003L73.8345 73.3337M52.1678 21.667C52.1678 23.6368 51.7799 25.5874 51.026 27.4072C50.2722 29.2271 49.1673 30.8807 47.7744 32.2736C46.3816 33.6665 44.728 34.7714 42.9081 35.5252C41.0882 36.279 39.1377 36.667 37.1678 36.667C35.198 36.667 33.2475 36.279 31.4276 35.5252C29.6077 34.7714 27.9541 33.6665 26.5612 32.2736C25.1684 30.8807 24.0635 29.2271 23.3096 27.4072C22.5558 25.5874 22.1678 23.6368 22.1678 21.667C22.1678 17.6887 23.7482 13.8734 26.5612 11.0604C29.3743 8.24735 33.1896 6.66699 37.1678 6.66699C41.1461 6.66699 44.9614 8.24735 47.7744 11.0604C50.5875 13.8734 52.1678 17.6887 52.1678 21.667ZM71.1678 58.667C71.1678 55.4844 69.9036 52.4321 67.6531 50.1817C65.4027 47.9313 62.3504 46.667 59.1678 46.667C55.9852 46.667 52.933 47.9313 50.6826 50.1817C48.4321 52.4321 47.1678 55.4844 47.1678 58.667C47.1678 61.8496 48.4321 64.9018 50.6826 67.1523C52.933 69.4027 55.9852 70.667 59.1678 70.667C62.3504 70.667 65.4027 69.4027 67.6531 67.1523C69.9036 64.9018 71.1678 61.8496 71.1678 58.667Z" stroke="#4285F4" stroke-width="1.5" stroke-linecap="round" stroke-linejoin="round"/>
</svg>
