<svg width="32" height="33" viewBox="0 0 32 33" fill="none" xmlns="http://www.w3.org/2000/svg">
<path d="M22.513 30.207C24.166 30.207 25.5 28.928 25.5 27.358V23.824C25.5 19.063 21.358 15.207 16.25 15.207C11.142 15.207 7 19.063 7 23.824V27.358C7 28.928 8.334 30.207 9.987 30.207H22.513Z" fill="#FF8101"/>
<path d="M16.25 19.207C15.007 19.207 14 18.221 14 17.004V14.41C14 13.193 15.007 12.207 16.25 12.207C17.493 12.207 18.5 13.193 18.5 14.41V17.004C18.5 18.221 17.493 19.207 16.25 19.207Z" fill="#F4C6AD"/>
<path d="M10.5 25.207H7V23.824C7 21.164 8.292 18.787 10.324 17.207H10.5V25.207ZM22 25.207H25.5V23.824C25.5 21.164 24.207 18.787 22.176 17.207H22V25.207Z" fill="#FF6723"/>
<path d="M22.3891 5.42703C22.0991 4.91703 21.6391 4.56703 21.1191 4.38703C20.5591 4.19703 20.0691 3.83703 19.7691 3.32703C19.561 2.98565 19.2687 2.7034 18.9203 2.5073C18.5719 2.3112 18.179 2.20781 17.7791 2.20703C17.4591 2.20703 17.1491 2.27703 16.8691 2.39703C16.4891 2.55703 16.0591 2.55703 15.6791 2.39703C15.3891 2.27703 15.0891 2.20703 14.7591 2.20703C13.9291 2.20703 13.1991 2.63703 12.7891 3.29703C12.4691 3.80703 11.9791 4.18703 11.4091 4.38703C10.8691 4.57703 10.3991 4.95703 10.1091 5.49703C9.68913 6.28703 9.77913 7.21703 10.2491 7.91703C10.4191 8.16703 10.5191 8.47703 10.5191 8.77703V12.857C10.5191 13.767 11.0991 14.577 11.9591 14.877L13.8091 15.517V8.24703C13.9491 8.10703 14.0791 7.94703 14.1791 7.75703C14.3491 7.46703 14.4391 7.15703 14.4791 6.84703C14.7987 6.88712 15.1231 6.85977 15.4314 6.76676C15.7397 6.67375 16.0251 6.51714 16.2691 6.30703C16.6791 6.65703 17.1991 6.86703 17.7791 6.86703C17.8691 6.86703 17.9591 6.85703 18.0591 6.84703C18.0891 7.15703 18.1891 7.46703 18.3591 7.75703C18.4691 7.93703 18.5891 8.09703 18.7291 8.24703V15.517L20.5791 14.877C21.4391 14.577 22.0191 13.767 22.0191 12.857V8.78703C22.0191 8.47703 22.1091 8.17703 22.2891 7.92703C22.7791 7.20703 22.8591 6.23703 22.3891 5.42703Z" fill="#212121"/>
<path d="M13 10.707C13 11.1049 12.842 11.4864 12.5607 11.7677C12.2794 12.049 11.8978 12.207 11.5 12.207C11.1022 12.207 10.7206 12.049 10.4393 11.7677C10.158 11.4864 10 11.1049 10 10.707C10 10.3092 10.158 9.92768 10.4393 9.64637C10.7206 9.36507 11.1022 9.20703 11.5 9.20703C11.8978 9.20703 12.2794 9.36507 12.5607 9.64637C12.842 9.92768 13 10.3092 13 10.707ZM22.5 10.707C22.5 11.1049 22.342 11.4864 22.0607 11.7677C21.7794 12.049 21.3978 12.207 21 12.207C20.6022 12.207 20.2206 12.049 19.9393 11.7677C19.658 11.4864 19.5 11.1049 19.5 10.707C19.5 10.3092 19.658 9.92768 19.9393 9.64637C20.2206 9.36507 20.6022 9.20703 21 9.20703C21.3978 9.20703 21.7794 9.36507 22.0607 9.64637C22.342 9.92768 22.5 10.3092 22.5 10.707Z" fill="#F4C6AD"/>
<path d="M14.5491 4.84766C13.6633 4.84766 12.8137 5.19955 12.1874 5.82592C11.561 6.45229 11.2091 7.30183 11.2091 8.18766L11.1211 9.17966L11.4031 13.3847C11.6671 15.2937 13.3311 16.7077 15.3111 16.7077H17.1981C19.1681 16.7077 20.8421 15.2837 21.1061 13.3847L21.4091 8.60066L21.4191 8.17766C21.4258 7.98498 21.3937 7.79291 21.3248 7.61285C21.2559 7.4328 21.1515 7.26842 21.0179 7.12946C20.8842 6.9905 20.724 6.87979 20.5468 6.8039C20.3696 6.72801 20.1789 6.68848 19.9861 6.68766H18.6491C17.6991 6.68766 16.8291 6.13766 16.4391 5.26766C16.3888 5.14426 16.303 5.03853 16.1927 4.96379C16.0823 4.88905 15.9524 4.84864 15.8191 4.84766H14.5491Z" fill="#FFD7C2"/>
<path d="M17.2489 13.958C17.197 13.9579 17.1464 13.9419 17.1039 13.912C16.8388 13.7775 16.5457 13.7075 16.2484 13.7075C15.9512 13.7075 15.6581 13.7775 15.3929 13.912C15.3388 13.9497 15.272 13.9645 15.207 13.9531C15.142 13.9418 15.0841 13.9052 15.046 13.8513C15.0079 13.7975 14.9926 13.7308 15.0034 13.6657C15.0143 13.6007 15.0504 13.5425 15.1039 13.504C15.4543 13.3092 15.8486 13.207 16.2494 13.207C16.6503 13.207 17.0445 13.3092 17.3949 13.504C17.4379 13.5348 17.4699 13.5786 17.4865 13.6288C17.503 13.6791 17.5032 13.7333 17.487 13.7837C17.4707 13.834 17.4389 13.8779 17.3962 13.9091C17.3534 13.9402 17.3018 13.957 17.2489 13.957V13.958Z" fill="#990838"/>
<path d="M15.9007 10.4695L15.3907 12.0555C15.2807 12.3765 15.5407 12.7075 15.9007 12.7075H16.6707C17.0307 12.7075 17.2907 12.3775 17.1807 12.0555L16.6507 10.4695C16.5407 10.1195 16.0207 10.1195 15.9007 10.4695Z" fill="#E5AF93"/>
<path d="M12.9902 23.4574L21.8502 24.9974H25.5002V27.4474C25.5002 28.3274 25.0502 29.1574 24.3002 29.6774C23.7902 30.0274 23.1802 30.2074 22.5702 30.2074H22.5602C22.1302 30.2074 21.7102 30.0874 21.3202 29.8874L9.41016 25.2074C9.41016 25.2074 9.98016 22.8574 12.9902 23.4574Z" fill="#F4C6AD"/>
<path d="M19.51 23.5632L10.65 25.2072H7V27.4272C7 28.3072 7.45 29.1372 8.2 29.6572C8.71 30.0072 9.32 30.1872 9.93 30.1872H9.94C10.37 30.1872 10.79 30.0672 11.18 29.8672L23.03 25.1032C23.02 25.1032 22.52 22.9632 19.51 23.5632Z" fill="#FFD7C2"/>
<path d="M15.4803 10.459C15.5023 10.595 15.3883 10.708 15.2503 10.708H12.7503C12.6123 10.708 12.4983 10.595 12.5203 10.459C12.5782 10.1082 12.7587 9.78942 13.0298 9.5594C13.3009 9.32939 13.6448 9.20312 14.0003 9.20312C14.3558 9.20312 14.6998 9.32939 14.9708 9.5594C15.2419 9.78942 15.4224 10.1082 15.4803 10.459ZM19.9623 10.459C19.9853 10.595 19.8703 10.708 19.7323 10.708H17.2323C17.0943 10.708 16.9803 10.595 17.0023 10.459C17.0602 10.1082 17.2407 9.78942 17.5118 9.5594C17.7829 9.32939 18.1268 9.20312 18.4823 9.20312C18.8378 9.20312 19.1818 9.32939 19.4528 9.5594C19.7239 9.78942 19.9044 10.1082 19.9623 10.459Z" fill="white"/>
<path d="M15 10.3311C15 10.4651 14.97 10.5921 14.916 10.7061H13.334C13.2779 10.5876 13.2492 10.4579 13.25 10.3268C13.2508 10.1956 13.2811 10.0663 13.3386 9.94843C13.3961 9.83055 13.4793 9.72711 13.5822 9.64575C13.6851 9.56439 13.8049 9.50719 13.9329 9.47839C14.0608 9.44959 14.1936 9.44992 14.3214 9.47936C14.4492 9.5088 14.5688 9.56659 14.6712 9.64846C14.7737 9.73034 14.8564 9.8342 14.9133 9.95236C14.9702 10.0705 14.9999 10.2 15 10.3311ZM19.25 10.3311C19.25 10.4651 19.22 10.5921 19.166 10.7061H17.584C17.5279 10.5876 17.4992 10.4579 17.5 10.3268C17.5008 10.1956 17.5311 10.0663 17.5886 9.94843C17.6461 9.83055 17.7293 9.72711 17.8322 9.64575C17.9351 9.56439 18.0549 9.50719 18.1829 9.47839C18.3108 9.44959 18.4436 9.44992 18.5714 9.47936C18.6992 9.5088 18.8188 9.56659 18.9212 9.64846C19.0237 9.73034 19.1064 9.8342 19.1633 9.95236C19.2202 10.0705 19.2499 10.2 19.25 10.3311Z" fill="#7D4533"/>
<path d="M14.6248 10.3262C14.6249 10.3984 14.6093 10.4698 14.5791 10.5354C14.5488 10.601 14.5047 10.6593 14.4498 10.7062H13.7998C13.7216 10.64 13.6656 10.5513 13.6395 10.4522C13.6134 10.3532 13.6184 10.2484 13.654 10.1523C13.6895 10.0562 13.7537 9.9733 13.8379 9.91495C13.9222 9.85661 14.0223 9.82561 14.1248 9.82618C14.2574 9.82618 14.3846 9.87886 14.4784 9.97263C14.5721 10.0664 14.6248 10.1936 14.6248 10.3262ZM18.8748 10.3262C18.8749 10.3984 18.8593 10.4698 18.8291 10.5354C18.7988 10.601 18.7547 10.6593 18.6998 10.7062H18.0498C17.9716 10.64 17.9156 10.5513 17.8895 10.4522C17.8634 10.3532 17.8684 10.2484 17.9039 10.1523C17.9395 10.0562 18.0037 9.9733 18.0879 9.91495C18.1722 9.85661 18.2723 9.82561 18.3748 9.82618C18.5074 9.82618 18.6346 9.87886 18.7284 9.97263C18.8221 10.0664 18.8748 10.1936 18.8748 10.3262Z" fill="#252C32"/>
<path d="M13.7996 10.107C13.8527 10.107 13.9035 10.086 13.941 10.0485C13.9785 10.0109 13.9996 9.96007 13.9996 9.90703C13.9996 9.85399 13.9785 9.80312 13.941 9.76561C13.9035 9.7281 13.8527 9.70703 13.7996 9.70703C13.7466 9.70703 13.6957 9.7281 13.6582 9.76561C13.6207 9.80312 13.5996 9.85399 13.5996 9.90703C13.5996 9.96007 13.6207 10.0109 13.6582 10.0485C13.6957 10.086 13.7466 10.107 13.7996 10.107ZM18.0496 10.107C18.1027 10.107 18.1535 10.086 18.191 10.0485C18.2285 10.0109 18.2496 9.96007 18.2496 9.90703C18.2496 9.85399 18.2285 9.80312 18.191 9.76561C18.1535 9.7281 18.1027 9.70703 18.0496 9.70703C17.9966 9.70703 17.9457 9.7281 17.9082 9.76561C17.8707 9.80312 17.8496 9.85399 17.8496 9.90703C17.8496 9.96007 17.8707 10.0109 17.9082 10.0485C17.9457 10.086 17.9966 10.107 18.0496 10.107Z" fill="white"/>
<path d="M16.957 14.7067H15.543C15.5947 14.5606 15.6905 14.4341 15.8171 14.3446C15.9437 14.2551 16.0949 14.207 16.25 14.207C16.405 14.207 16.5562 14.2551 16.6829 14.3446C16.8095 14.4341 16.9052 14.5606 16.957 14.7067Z" fill="#F1B99B"/>
<path d="M12.75 8.20703C12.6837 8.20703 12.6201 8.23337 12.5732 8.28025C12.5263 8.32714 12.5 8.39073 12.5 8.45703C12.5 8.52334 12.5263 8.58692 12.5732 8.63381C12.6201 8.68069 12.6837 8.70703 12.75 8.70703H14.75C14.8163 8.70703 14.8799 8.68069 14.9268 8.63381C14.9737 8.58692 15 8.52334 15 8.45703C15 8.39073 14.9737 8.32714 14.9268 8.28025C14.8799 8.23337 14.8163 8.20703 14.75 8.20703H12.75ZM17.75 8.20703C17.6837 8.20703 17.6201 8.23337 17.5732 8.28025C17.5263 8.32714 17.5 8.39073 17.5 8.45703C17.5 8.52334 17.5263 8.58692 17.5732 8.63381C17.6201 8.68069 17.6837 8.70703 17.75 8.70703H19.75C19.8163 8.70703 19.8799 8.68069 19.9268 8.63381C19.9737 8.58692 20 8.52334 20 8.45703C20 8.39073 19.9737 8.32714 19.9268 8.28025C19.8799 8.23337 19.8163 8.20703 19.75 8.20703H17.75Z" fill="#212121"/>
</svg>
