<svg width="42" height="45" viewBox="0 0 42 45" fill="none" xmlns="http://www.w3.org/2000/svg">
<rect x="0.5" y="0.707031" width="41" height="43" rx="7.5" fill="#EEE8FA"/>
<rect x="0.5" y="0.707031" width="41" height="43" rx="7.5" stroke="white"/>
<path d="M21 21.7109C14.92 21.7109 10 26.6309 10 32.7109V36.2109H32V32.7109C32 26.6409 27.07 21.7109 21 21.7109Z" fill="url(#paint0_linear_4632_7257)"/>
<path d="M21 21.7109C14.92 21.7109 10 26.6309 10 32.7109V36.2109H32V32.7109C32 26.6409 27.07 21.7109 21 21.7109Z" fill="url(#paint1_radial_4632_7257)"/>
<g filter="url(#filter0_f_4632_7257)">
<path d="M18.4197 23.0602C17.9067 23.0602 17.1237 23.0302 16.6497 23.2262L15.2697 25.9502C15.1797 26.1402 15.3297 26.3602 15.5397 26.3602H17.0897C17.3297 26.3602 17.4397 26.6502 17.2797 26.8102L15.4997 28.1532C15.2397 28.4132 15.1397 28.8032 15.2697 29.1532L18.1817 35.6532L19.7687 34.5372L18.4287 23.0602H18.4197Z" fill="#41355C"/>
</g>
<g filter="url(#filter1_f_4632_7257)">
<path d="M25.9059 27.3941L24.7159 26.5661C24.6834 26.5338 24.6613 26.4924 24.6525 26.4474C24.6436 26.4024 24.6485 26.3558 24.6663 26.3136C24.6841 26.2713 24.7142 26.2354 24.7526 26.2104C24.7911 26.1853 24.8361 26.1724 24.8819 26.1731H25.8009C25.8433 26.1729 25.8849 26.1621 25.9219 26.1416C25.9589 26.1211 25.9902 26.0916 26.0128 26.0558C26.0354 26.02 26.0486 25.9791 26.0513 25.9369C26.0539 25.8947 26.0459 25.8524 26.0279 25.8141L24.9519 23.5241C24.74 23.4361 24.5245 23.357 24.3059 23.2871H23.7109V35.1491L26.1149 28.2771C26.1674 28.1252 26.1756 27.9614 26.1384 27.8051C26.1012 27.6487 26.0202 27.5061 25.9049 27.3941" fill="#463D68"/>
</g>
<path d="M23.7091 22.332H18.2891V36.222H23.7091V22.332Z" fill="url(#paint2_radial_4632_7257)"/>
<path d="M23.7091 22.332H18.2891V36.222H23.7091V22.332Z" fill="url(#paint3_linear_4632_7257)"/>
<path d="M23.7091 22.332H18.2891V36.222H23.7091V22.332Z" fill="url(#paint4_linear_4632_7257)"/>
<path d="M28 24.2285V36.2115H32V32.7115C32.0011 31.0899 31.6429 29.4882 30.9513 28.0214C30.2597 26.5547 29.2518 25.2594 28 24.2285Z" fill="url(#paint5_radial_4632_7257)"/>
<path d="M28 24.2285V36.2115H32V32.7115C32.0011 31.0899 31.6429 29.4882 30.9513 28.0214C30.2597 26.5547 29.2518 25.2594 28 24.2285Z" fill="url(#paint6_linear_4632_7257)"/>
<g filter="url(#filter2_i_4632_7257)">
<path d="M18.2907 22.3027H17.4407C17.2607 22.3627 17.0807 22.4327 16.9107 22.5027L15.6407 25.1927C15.5507 25.3827 15.7007 25.6027 15.9107 25.6027H16.9607C17.2007 25.6027 17.3107 25.8927 17.1507 26.0527L15.7907 27.3827C15.5307 27.6427 15.4307 28.0327 15.5607 28.3827L18.2907 36.2027H18.3007V22.3027H18.2907Z" fill="url(#paint7_linear_4632_7257)"/>
<path d="M18.2907 22.3027H17.4407C17.2607 22.3627 17.0807 22.4327 16.9107 22.5027L15.6407 25.1927C15.5507 25.3827 15.7007 25.6027 15.9107 25.6027H16.9607C17.2007 25.6027 17.3107 25.8927 17.1507 26.0527L15.7907 27.3827C15.5307 27.6427 15.4307 28.0327 15.5607 28.3827L18.2907 36.2027H18.3007V22.3027H18.2907Z" fill="url(#paint8_linear_4632_7257)"/>
<path d="M18.2907 22.3027H17.4407C17.2607 22.3627 17.0807 22.4327 16.9107 22.5027L15.6407 25.1927C15.5507 25.3827 15.7007 25.6027 15.9107 25.6027H16.9607C17.2007 25.6027 17.3107 25.8927 17.1507 26.0527L15.7907 27.3827C15.5307 27.6427 15.4307 28.0327 15.5607 28.3827L18.2907 36.2027H18.3007V22.3027H18.2907Z" fill="url(#paint9_radial_4632_7257)"/>
</g>
<path d="M18.2907 22.3027H17.4407C17.2607 22.3627 17.0807 22.4327 16.9107 22.5027L15.6407 25.1927C15.5507 25.3827 15.7007 25.6027 15.9107 25.6027H16.9607C17.2007 25.6027 17.3107 25.8927 17.1507 26.0527L15.7907 27.3827C15.5307 27.6427 15.4307 28.0327 15.5607 28.3827L18.2907 36.2027H18.3007V22.3027H18.2907Z" fill="url(#paint10_linear_4632_7257)"/>
<path d="M18.2907 22.3027H17.4407C17.2607 22.3627 17.0807 22.4327 16.9107 22.5027L15.6407 25.1927C15.5507 25.3827 15.7007 25.6027 15.9107 25.6027H16.9607C17.2007 25.6027 17.3107 25.8927 17.1507 26.0527L15.7907 27.3827C15.5307 27.6427 15.4307 28.0327 15.5607 28.3827L18.2907 36.2027H18.3007V22.3027H18.2907Z" fill="url(#paint11_radial_4632_7257)"/>
<g filter="url(#filter3_ii_4632_7257)">
<path d="M21.0099 24.5391L19.7699 25.7431C19.7482 25.7643 19.7333 25.7916 19.7275 25.8214C19.7216 25.8512 19.7249 25.8822 19.7369 25.9101L20.2839 27.1701C20.3033 27.215 20.3354 27.2532 20.3763 27.28C20.4172 27.3069 20.465 27.3211 20.5139 27.3211H21.4659C21.5659 27.3211 21.6559 27.2611 21.6959 27.1701L22.2459 25.8901C22.2578 25.8623 22.261 25.8316 22.2551 25.802C22.2492 25.7723 22.2345 25.7452 22.2129 25.7241L21.0099 24.5391Z" fill="url(#paint12_linear_4632_7257)"/>
</g>
<g filter="url(#filter4_i_4632_7257)">
<path d="M26.2209 27.332L24.8609 26.002C24.823 25.9652 24.7971 25.9178 24.7866 25.8661C24.776 25.8143 24.7814 25.7606 24.8019 25.7119C24.8225 25.6633 24.8573 25.622 24.9017 25.5934C24.9461 25.5649 24.9981 25.5504 25.0509 25.552H26.1009C26.3109 25.552 26.4509 25.332 26.3609 25.142L25.1309 22.522C24.8909 22.422 24.6409 22.332 24.3909 22.252H23.7109V36.202L26.4609 28.342C26.5809 27.982 26.4909 27.592 26.2209 27.332Z" fill="#605890"/>
<path d="M26.2209 27.332L24.8609 26.002C24.823 25.9652 24.7971 25.9178 24.7866 25.8661C24.776 25.8143 24.7814 25.7606 24.8019 25.7119C24.8225 25.6633 24.8573 25.622 24.9017 25.5934C24.9461 25.5649 24.9981 25.5504 25.0509 25.552H26.1009C26.3109 25.552 26.4509 25.332 26.3609 25.142L25.1309 22.522C24.8909 22.422 24.6409 22.332 24.3909 22.252H23.7109V36.202L26.4609 28.342C26.5809 27.982 26.4909 27.592 26.2209 27.332Z" fill="url(#paint13_linear_4632_7257)"/>
</g>
<path d="M20.9991 21.2676H18.2891V26.0076C18.2891 26.3176 18.6491 26.4976 18.8991 26.2976L20.9991 24.9066L23.0991 26.2986C23.3491 26.4986 23.7091 26.3186 23.7091 26.0086V21.2686L20.9991 21.2676Z" fill="url(#paint14_radial_4632_7257)"/>
<path d="M20.9991 21.2676H18.2891V26.0076C18.2891 26.3176 18.6491 26.4976 18.8991 26.2976L20.9991 24.9066L23.0991 26.2986C23.3491 26.4986 23.7091 26.3186 23.7091 26.0086V21.2686L20.9991 21.2676Z" fill="url(#paint15_radial_4632_7257)"/>
<path d="M12.032 36.212H13.97V24.248C12.1564 25.7534 10.8747 27.8018 10.314 30.091C10.1065 30.9525 10.0044 31.836 10.01 32.722L10.03 36.212H12.032Z" fill="url(#paint16_linear_4632_7257)"/>
<path d="M20.5047 27.3233C20.445 27.3233 20.3873 27.3447 20.342 27.3836C20.2967 27.4224 20.2668 27.4763 20.2577 27.5353L18.9297 36.2023H23.0397L21.7217 27.5353C21.7128 27.4761 21.683 27.422 21.6377 27.3829C21.5924 27.3439 21.5345 27.3223 21.4747 27.3223L20.5047 27.3233Z" fill="url(#paint17_radial_4632_7257)"/>
<path d="M20.5047 27.3233C20.445 27.3233 20.3873 27.3447 20.342 27.3836C20.2967 27.4224 20.2668 27.4763 20.2577 27.5353L18.9297 36.2023H23.0397L21.7217 27.5353C21.7128 27.4761 21.683 27.422 21.6377 27.3829C21.5924 27.3439 21.5345 27.3223 21.4747 27.3223L20.5047 27.3233Z" fill="url(#paint18_linear_4632_7257)"/>
<path d="M20.5047 27.3233C20.445 27.3233 20.3873 27.3447 20.342 27.3836C20.2967 27.4224 20.2668 27.4763 20.2577 27.5353L18.9297 36.2023H23.0397L21.7217 27.5353C21.7128 27.4761 21.683 27.422 21.6377 27.3829C21.5924 27.3439 21.5345 27.3223 21.4747 27.3223L20.5047 27.3233Z" fill="url(#paint19_linear_4632_7257)"/>
<path d="M19.0449 23.1014C19.0649 23.3154 19.2499 23.7924 19.7909 24.1564C20.0049 24.2994 21.0039 24.7844 20.9839 24.7754C21.1399 24.6964 21.7909 24.4764 22.2679 24.1554C22.8079 23.7924 22.9929 23.3154 23.0139 23.1014L21.0289 22.1484L19.0449 23.1014Z" fill="url(#paint20_radial_4632_7257)"/>
<path d="M25.9077 18.2895C26.2437 18.2795 26.5577 18.1645 26.8127 17.9805V18.9115C26.8127 19.8045 26.2807 20.6015 25.4727 20.9315C25.6465 20.5578 25.7628 20.1599 25.8177 19.7515L25.9077 18.2895Z" fill="url(#paint21_radial_4632_7257)"/>
<path d="M16.1862 18.2895C15.8606 18.2787 15.5455 18.1711 15.2812 17.9805V18.9115C15.2812 19.8045 15.8132 20.6015 16.6222 20.9315C16.4481 20.5578 16.3314 20.16 16.2762 19.7515L16.1862 18.2895Z" fill="url(#paint22_radial_4632_7257)"/>
<g filter="url(#filter5_ii_4632_7257)">
<path d="M16.2224 19.8051C16.3462 20.7479 16.8088 21.6133 17.5239 22.2401C18.2389 22.8668 19.1575 23.212 20.1084 23.2111H21.9954C22.946 23.2117 23.8644 22.8664 24.5793 22.2397C25.2941 21.613 25.7566 20.7477 25.8804 19.8051C25.9984 17.9211 26.1174 16.0451 26.2044 14.1621C26.2002 13.7927 26.0552 13.4387 25.7989 13.1726C25.5426 12.9065 25.1944 12.7482 24.8254 12.7301H23.4254C22.9566 12.7292 22.4982 12.5925 22.1056 12.3363C21.713 12.0802 21.4031 11.7158 21.2134 11.2871C21.1643 11.1641 21.0795 11.0585 20.9699 10.984C20.8603 10.9095 20.7309 10.8695 20.5984 10.8691H19.3254C17.4804 10.8691 15.9844 12.3821 15.9844 14.2491C15.9844 16.1091 16.1004 17.9391 16.2224 19.8051Z" fill="url(#paint23_radial_4632_7257)"/>
</g>
<path d="M16.2224 19.8051C16.3462 20.7479 16.8088 21.6133 17.5239 22.2401C18.2389 22.8668 19.1575 23.212 20.1084 23.2111H21.9954C22.946 23.2117 23.8644 22.8664 24.5793 22.2397C25.2941 21.613 25.7566 20.7477 25.8804 19.8051C25.9984 17.9211 26.1174 16.0451 26.2044 14.1621C26.2002 13.7927 26.0552 13.4387 25.7989 13.1726C25.5426 12.9065 25.1944 12.7482 24.8254 12.7301H23.4254C22.9566 12.7292 22.4982 12.5925 22.1056 12.3363C21.713 12.0802 21.4031 11.7158 21.2134 11.2871C21.1643 11.1641 21.0795 11.0585 20.9699 10.984C20.8603 10.9095 20.7309 10.8695 20.5984 10.8691H19.3254C17.4804 10.8691 15.9844 12.3821 15.9844 14.2491C15.9844 16.1091 16.1004 17.9391 16.2224 19.8051Z" fill="url(#paint24_linear_4632_7257)"/>
<path d="M16.2224 19.8051C16.3462 20.7479 16.8088 21.6133 17.5239 22.2401C18.2389 22.8668 19.1575 23.212 20.1084 23.2111H21.9954C22.946 23.2117 23.8644 22.8664 24.5793 22.2397C25.2941 21.613 25.7566 20.7477 25.8804 19.8051C25.9984 17.9211 26.1174 16.0451 26.2044 14.1621C26.2002 13.7927 26.0552 13.4387 25.7989 13.1726C25.5426 12.9065 25.1944 12.7482 24.8254 12.7301H23.4254C22.9566 12.7292 22.4982 12.5925 22.1056 12.3363C21.713 12.0802 21.4031 11.7158 21.2134 11.2871C21.1643 11.1641 21.0795 11.0585 20.9699 10.984C20.8603 10.9095 20.7309 10.8695 20.5984 10.8691H19.3254C17.4804 10.8691 15.9844 12.3821 15.9844 14.2491C15.9844 16.1091 16.1004 17.9391 16.2224 19.8051Z" fill="url(#paint25_radial_4632_7257)"/>
<path d="M16.2224 19.8051C16.3462 20.7479 16.8088 21.6133 17.5239 22.2401C18.2389 22.8668 19.1575 23.212 20.1084 23.2111H21.9954C22.946 23.2117 23.8644 22.8664 24.5793 22.2397C25.2941 21.613 25.7566 20.7477 25.8804 19.8051C25.9984 17.9211 26.1174 16.0451 26.2044 14.1621C26.2002 13.7927 26.0552 13.4387 25.7989 13.1726C25.5426 12.9065 25.1944 12.7482 24.8254 12.7301H23.4254C22.9566 12.7292 22.4982 12.5925 22.1056 12.3363C21.713 12.0802 21.4031 11.7158 21.2134 11.2871C21.1643 11.1641 21.0795 11.0585 20.9699 10.984C20.8603 10.9095 20.7309 10.8695 20.5984 10.8691H19.3254C17.4804 10.8691 15.9844 12.3821 15.9844 14.2491C15.9844 16.1091 16.1004 17.9391 16.2224 19.8051Z" fill="url(#paint26_radial_4632_7257)"/>
<path d="M16.2224 19.8051C16.3462 20.7479 16.8088 21.6133 17.5239 22.2401C18.2389 22.8668 19.1575 23.212 20.1084 23.2111H21.9954C22.946 23.2117 23.8644 22.8664 24.5793 22.2397C25.2941 21.613 25.7566 20.7477 25.8804 19.8051C25.9984 17.9211 26.1174 16.0451 26.2044 14.1621C26.2002 13.7927 26.0552 13.4387 25.7989 13.1726C25.5426 12.9065 25.1944 12.7482 24.8254 12.7301H23.4254C22.9566 12.7292 22.4982 12.5925 22.1056 12.3363C21.713 12.0802 21.4031 11.7158 21.2134 11.2871C21.1643 11.1641 21.0795 11.0585 20.9699 10.984C20.8603 10.9095 20.7309 10.8695 20.5984 10.8691H19.3254C17.4804 10.8691 15.9844 12.3821 15.9844 14.2491C15.9844 16.1091 16.1004 17.9391 16.2224 19.8051Z" fill="url(#paint27_radial_4632_7257)"/>
<path d="M16.2224 19.8051C16.3462 20.7479 16.8088 21.6133 17.5239 22.2401C18.2389 22.8668 19.1575 23.212 20.1084 23.2111H21.9954C22.946 23.2117 23.8644 22.8664 24.5793 22.2397C25.2941 21.613 25.7566 20.7477 25.8804 19.8051C25.9984 17.9211 26.1174 16.0451 26.2044 14.1621C26.2002 13.7927 26.0552 13.4387 25.7989 13.1726C25.5426 12.9065 25.1944 12.7482 24.8254 12.7301H23.4254C22.9566 12.7292 22.4982 12.5925 22.1056 12.3363C21.713 12.0802 21.4031 11.7158 21.2134 11.2871C21.1643 11.1641 21.0795 11.0585 20.9699 10.984C20.8603 10.9095 20.7309 10.8695 20.5984 10.8691H19.3254C17.4804 10.8691 15.9844 12.3821 15.9844 14.2491C15.9844 16.1091 16.1004 17.9391 16.2224 19.8051Z" fill="url(#paint28_radial_4632_7257)"/>
<path d="M16.2224 19.8051C16.3462 20.7479 16.8088 21.6133 17.5239 22.2401C18.2389 22.8668 19.1575 23.212 20.1084 23.2111H21.9954C22.946 23.2117 23.8644 22.8664 24.5793 22.2397C25.2941 21.613 25.7566 20.7477 25.8804 19.8051C25.9984 17.9211 26.1174 16.0451 26.2044 14.1621C26.2002 13.7927 26.0552 13.4387 25.7989 13.1726C25.5426 12.9065 25.1944 12.7482 24.8254 12.7301H23.4254C22.9566 12.7292 22.4982 12.5925 22.1056 12.3363C21.713 12.0802 21.4031 11.7158 21.2134 11.2871C21.1643 11.1641 21.0795 11.0585 20.9699 10.984C20.8603 10.9095 20.7309 10.8695 20.5984 10.8691H19.3254C17.4804 10.8691 15.9844 12.3821 15.9844 14.2491C15.9844 16.1091 16.1004 17.9391 16.2224 19.8051Z" fill="url(#paint29_radial_4632_7257)"/>
<path d="M16.2224 19.8051C16.3462 20.7479 16.8088 21.6133 17.5239 22.2401C18.2389 22.8668 19.1575 23.212 20.1084 23.2111H21.9954C22.946 23.2117 23.8644 22.8664 24.5793 22.2397C25.2941 21.613 25.7566 20.7477 25.8804 19.8051C25.9984 17.9211 26.1174 16.0451 26.2044 14.1621C26.2002 13.7927 26.0552 13.4387 25.7989 13.1726C25.5426 12.9065 25.1944 12.7482 24.8254 12.7301H23.4254C22.9566 12.7292 22.4982 12.5925 22.1056 12.3363C21.713 12.0802 21.4031 11.7158 21.2134 11.2871C21.1643 11.1641 21.0795 11.0585 20.9699 10.984C20.8603 10.9095 20.7309 10.8695 20.5984 10.8691H19.3254C17.4804 10.8691 15.9844 12.3821 15.9844 14.2491C15.9844 16.1091 16.1004 17.9391 16.2224 19.8051Z" fill="url(#paint30_linear_4632_7257)"/>
<g filter="url(#filter6_f_4632_7257)">
<path d="M20.6454 16.5172L20.0544 18.3542C19.9534 18.7332 20.1954 19.1112 20.5384 19.1112H21.2704C21.6134 19.1112 21.8554 18.7272 21.7544 18.3542L21.2604 16.5162C21.1544 16.1092 20.7564 16.1092 20.6454 16.5162" fill="#D69790"/>
</g>
<g filter="url(#filter7_f_4632_7257)">
<path d="M20.6641 16.3248L20.1321 18.1638C20.0241 18.5418 20.2841 18.9198 20.6521 18.9198H21.4391C21.8081 18.9198 22.0691 18.5358 21.9591 18.1638L21.4291 16.3248C21.3151 15.9178 20.7831 15.9178 20.6641 16.3248Z" fill="#F6BFAB"/>
<path d="M20.6641 16.3248L20.1321 18.1638C20.0241 18.5418 20.2841 18.9198 20.6521 18.9198H21.4391C21.8081 18.9198 22.0691 18.5358 21.9591 18.1638L21.4291 16.3248C21.3151 15.9178 20.7831 15.9178 20.6641 16.3248Z" fill="url(#paint31_linear_4632_7257)"/>
<path d="M20.6641 16.3248L20.1321 18.1638C20.0241 18.5418 20.2841 18.9198 20.6521 18.9198H21.4391C21.8081 18.9198 22.0691 18.5358 21.9591 18.1638L21.4291 16.3248C21.3151 15.9178 20.7831 15.9178 20.6641 16.3248Z" fill="url(#paint32_radial_4632_7257)"/>
<path d="M20.6641 16.3248L20.1321 18.1638C20.0241 18.5418 20.2841 18.9198 20.6521 18.9198H21.4391C21.8081 18.9198 22.0691 18.5358 21.9591 18.1638L21.4291 16.3248C21.3151 15.9178 20.7831 15.9178 20.6641 16.3248Z" fill="url(#paint33_linear_4632_7257)"/>
<path d="M20.6641 16.3248L20.1321 18.1638C20.0241 18.5418 20.2841 18.9198 20.6521 18.9198H21.4391C21.8081 18.9198 22.0691 18.5358 21.9591 18.1638L21.4291 16.3248C21.3151 15.9178 20.7831 15.9178 20.6641 16.3248Z" fill="url(#paint34_radial_4632_7257)"/>
<path d="M20.6641 16.3248L20.1321 18.1638C20.0241 18.5418 20.2841 18.9198 20.6521 18.9198H21.4391C21.8081 18.9198 22.0691 18.5358 21.9591 18.1638L21.4291 16.3248C21.3151 15.9178 20.7831 15.9178 20.6641 16.3248Z" fill="url(#paint35_linear_4632_7257)"/>
</g>
<g filter="url(#filter8_f_4632_7257)">
<path d="M19.6957 19.5423C19.6517 19.5194 19.6014 19.5115 19.5525 19.5198C19.5036 19.5281 19.4587 19.5521 19.4247 19.5883C19.3897 19.6236 19.3682 19.67 19.364 19.7196C19.3598 19.7691 19.3732 19.8186 19.4017 19.8593C19.7497 20.3873 20.3567 20.7383 21.0467 20.7383C21.3725 20.7391 21.6933 20.6591 21.9806 20.5056C22.2678 20.352 22.5125 20.1296 22.6927 19.8583C22.721 19.8172 22.7341 19.7676 22.7297 19.7179C22.7254 19.6683 22.7038 19.6217 22.6687 19.5863C22.6347 19.5505 22.5899 19.5268 22.5412 19.5187C22.4925 19.5106 22.4425 19.5185 22.3987 19.5413C22.0087 19.7453 21.5477 19.8613 21.0477 19.8613C20.5507 19.8613 20.0857 19.7453 19.6957 19.5413V19.5423Z" stroke="url(#paint36_linear_4632_7257)" stroke-width="0.15"/>
</g>
<path d="M21.0465 19.9367C20.5395 19.9367 20.0615 19.8168 19.6615 19.6078C19.5245 19.5378 19.3765 19.6928 19.4635 19.8168C19.7985 20.3248 20.3815 20.6628 21.0465 20.6628C21.3598 20.664 21.6685 20.5873 21.9448 20.4397C22.2212 20.292 22.4564 20.0779 22.6295 19.8168C22.7165 19.6868 22.5695 19.5378 22.4325 19.6078C22.0038 19.8275 21.5283 19.9403 21.0465 19.9367Z" fill="url(#paint37_radial_4632_7257)"/>
<g filter="url(#filter9_ii_4632_7257)">
<path d="M25.9022 10.3974C26.4162 10.5744 26.8782 10.9334 27.1692 11.4484C27.392 11.8367 27.5002 12.28 27.4815 12.7272C27.4627 13.1745 27.3177 13.6072 27.0632 13.9754C26.8879 14.2332 26.7938 14.5377 26.7932 14.8494V16.0374C26.5919 15.9027 26.3647 15.8115 26.1262 15.7694L26.2042 14.1624C26.2 13.793 26.055 13.439 25.7987 13.1729C25.5424 12.9068 25.1942 12.7485 24.8252 12.7304H23.4252C22.4702 12.7304 21.6052 12.1674 21.2132 11.2874C21.1641 11.1643 21.0793 11.0588 20.9697 10.9843C20.8601 10.9098 20.7307 10.8698 20.5982 10.8694H19.3252C17.4792 10.8694 15.9842 12.3824 15.9842 14.2494L16.0142 15.7854C15.7574 15.8184 15.5114 15.9086 15.2942 16.0494V14.8494C15.2942 14.5384 15.1992 14.2324 15.0242 13.9754C14.7818 13.6186 14.6406 13.2028 14.6154 12.7721C14.5902 12.3415 14.6821 11.9121 14.8812 11.5294C15.1558 11.0027 15.62 10.5999 16.1802 10.4024C16.7542 10.2003 17.2423 9.80882 17.5642 9.29243C17.8574 8.82013 18.3101 8.46849 18.8403 8.30119C19.3704 8.13389 19.943 8.162 20.4542 8.38043C20.6425 8.46276 20.8457 8.50526 21.0512 8.50526C21.2567 8.50526 21.4599 8.46276 21.6482 8.38043C21.9292 8.26243 22.2372 8.19343 22.5602 8.19343C23.4042 8.19343 24.1402 8.64943 24.5502 9.32443C24.8572 9.83443 25.3402 10.2044 25.9022 10.3974Z" fill="url(#paint38_linear_4632_7257)"/>
<path d="M25.9022 10.3974C26.4162 10.5744 26.8782 10.9334 27.1692 11.4484C27.392 11.8367 27.5002 12.28 27.4815 12.7272C27.4627 13.1745 27.3177 13.6072 27.0632 13.9754C26.8879 14.2332 26.7938 14.5377 26.7932 14.8494V16.0374C26.5919 15.9027 26.3647 15.8115 26.1262 15.7694L26.2042 14.1624C26.2 13.793 26.055 13.439 25.7987 13.1729C25.5424 12.9068 25.1942 12.7485 24.8252 12.7304H23.4252C22.4702 12.7304 21.6052 12.1674 21.2132 11.2874C21.1641 11.1643 21.0793 11.0588 20.9697 10.9843C20.8601 10.9098 20.7307 10.8698 20.5982 10.8694H19.3252C17.4792 10.8694 15.9842 12.3824 15.9842 14.2494L16.0142 15.7854C15.7574 15.8184 15.5114 15.9086 15.2942 16.0494V14.8494C15.2942 14.5384 15.1992 14.2324 15.0242 13.9754C14.7818 13.6186 14.6406 13.2028 14.6154 12.7721C14.5902 12.3415 14.6821 11.9121 14.8812 11.5294C15.1558 11.0027 15.62 10.5999 16.1802 10.4024C16.7542 10.2003 17.2423 9.80882 17.5642 9.29243C17.8574 8.82013 18.3101 8.46849 18.8403 8.30119C19.3704 8.13389 19.943 8.162 20.4542 8.38043C20.6425 8.46276 20.8457 8.50526 21.0512 8.50526C21.2567 8.50526 21.4599 8.46276 21.6482 8.38043C21.9292 8.26243 22.2372 8.19343 22.5602 8.19343C23.4042 8.19343 24.1402 8.64943 24.5502 9.32443C24.8572 9.83443 25.3402 10.2044 25.9022 10.3974Z" fill="url(#paint39_radial_4632_7257)"/>
<path d="M25.9022 10.3974C26.4162 10.5744 26.8782 10.9334 27.1692 11.4484C27.392 11.8367 27.5002 12.28 27.4815 12.7272C27.4627 13.1745 27.3177 13.6072 27.0632 13.9754C26.8879 14.2332 26.7938 14.5377 26.7932 14.8494V16.0374C26.5919 15.9027 26.3647 15.8115 26.1262 15.7694L26.2042 14.1624C26.2 13.793 26.055 13.439 25.7987 13.1729C25.5424 12.9068 25.1942 12.7485 24.8252 12.7304H23.4252C22.4702 12.7304 21.6052 12.1674 21.2132 11.2874C21.1641 11.1643 21.0793 11.0588 20.9697 10.9843C20.8601 10.9098 20.7307 10.8698 20.5982 10.8694H19.3252C17.4792 10.8694 15.9842 12.3824 15.9842 14.2494L16.0142 15.7854C15.7574 15.8184 15.5114 15.9086 15.2942 16.0494V14.8494C15.2942 14.5384 15.1992 14.2324 15.0242 13.9754C14.7818 13.6186 14.6406 13.2028 14.6154 12.7721C14.5902 12.3415 14.6821 11.9121 14.8812 11.5294C15.1558 11.0027 15.62 10.5999 16.1802 10.4024C16.7542 10.2003 17.2423 9.80882 17.5642 9.29243C17.8574 8.82013 18.3101 8.46849 18.8403 8.30119C19.3704 8.13389 19.943 8.162 20.4542 8.38043C20.6425 8.46276 20.8457 8.50526 21.0512 8.50526C21.2567 8.50526 21.4599 8.46276 21.6482 8.38043C21.9292 8.26243 22.2372 8.19343 22.5602 8.19343C23.4042 8.19343 24.1402 8.64943 24.5502 9.32443C24.8572 9.83443 25.3402 10.2044 25.9022 10.3974Z" fill="url(#paint40_radial_4632_7257)"/>
<path d="M25.9022 10.3974C26.4162 10.5744 26.8782 10.9334 27.1692 11.4484C27.392 11.8367 27.5002 12.28 27.4815 12.7272C27.4627 13.1745 27.3177 13.6072 27.0632 13.9754C26.8879 14.2332 26.7938 14.5377 26.7932 14.8494V16.0374C26.5919 15.9027 26.3647 15.8115 26.1262 15.7694L26.2042 14.1624C26.2 13.793 26.055 13.439 25.7987 13.1729C25.5424 12.9068 25.1942 12.7485 24.8252 12.7304H23.4252C22.4702 12.7304 21.6052 12.1674 21.2132 11.2874C21.1641 11.1643 21.0793 11.0588 20.9697 10.9843C20.8601 10.9098 20.7307 10.8698 20.5982 10.8694H19.3252C17.4792 10.8694 15.9842 12.3824 15.9842 14.2494L16.0142 15.7854C15.7574 15.8184 15.5114 15.9086 15.2942 16.0494V14.8494C15.2942 14.5384 15.1992 14.2324 15.0242 13.9754C14.7818 13.6186 14.6406 13.2028 14.6154 12.7721C14.5902 12.3415 14.6821 11.9121 14.8812 11.5294C15.1558 11.0027 15.62 10.5999 16.1802 10.4024C16.7542 10.2003 17.2423 9.80882 17.5642 9.29243C17.8574 8.82013 18.3101 8.46849 18.8403 8.30119C19.3704 8.13389 19.943 8.162 20.4542 8.38043C20.6425 8.46276 20.8457 8.50526 21.0512 8.50526C21.2567 8.50526 21.4599 8.46276 21.6482 8.38043C21.9292 8.26243 22.2372 8.19343 22.5602 8.19343C23.4042 8.19343 24.1402 8.64943 24.5502 9.32443C24.8572 9.83443 25.3402 10.2044 25.9022 10.3974Z" fill="url(#paint41_radial_4632_7257)"/>
<path d="M25.9022 10.3974C26.4162 10.5744 26.8782 10.9334 27.1692 11.4484C27.392 11.8367 27.5002 12.28 27.4815 12.7272C27.4627 13.1745 27.3177 13.6072 27.0632 13.9754C26.8879 14.2332 26.7938 14.5377 26.7932 14.8494V16.0374C26.5919 15.9027 26.3647 15.8115 26.1262 15.7694L26.2042 14.1624C26.2 13.793 26.055 13.439 25.7987 13.1729C25.5424 12.9068 25.1942 12.7485 24.8252 12.7304H23.4252C22.4702 12.7304 21.6052 12.1674 21.2132 11.2874C21.1641 11.1643 21.0793 11.0588 20.9697 10.9843C20.8601 10.9098 20.7307 10.8698 20.5982 10.8694H19.3252C17.4792 10.8694 15.9842 12.3824 15.9842 14.2494L16.0142 15.7854C15.7574 15.8184 15.5114 15.9086 15.2942 16.0494V14.8494C15.2942 14.5384 15.1992 14.2324 15.0242 13.9754C14.7818 13.6186 14.6406 13.2028 14.6154 12.7721C14.5902 12.3415 14.6821 11.9121 14.8812 11.5294C15.1558 11.0027 15.62 10.5999 16.1802 10.4024C16.7542 10.2003 17.2423 9.80882 17.5642 9.29243C17.8574 8.82013 18.3101 8.46849 18.8403 8.30119C19.3704 8.13389 19.943 8.162 20.4542 8.38043C20.6425 8.46276 20.8457 8.50526 21.0512 8.50526C21.2567 8.50526 21.4599 8.46276 21.6482 8.38043C21.9292 8.26243 22.2372 8.19343 22.5602 8.19343C23.4042 8.19343 24.1402 8.64943 24.5502 9.32443C24.8572 9.83443 25.3402 10.2044 25.9022 10.3974Z" fill="url(#paint42_radial_4632_7257)"/>
</g>
<g filter="url(#filter10_i_4632_7257)">
<path d="M24.7803 14.0605C24.5836 13.875 24.3488 13.7347 24.0923 13.6495C23.7883 13.5535 23.4073 13.5275 22.8803 13.5925C22.8073 13.6014 22.7409 13.6389 22.6956 13.6967C22.6503 13.7546 22.6299 13.828 22.6388 13.901C22.6476 13.9739 22.6851 14.0403 22.743 14.0856C22.8008 14.1309 22.8743 14.1514 22.9473 14.1425C23.4283 14.0845 23.7233 14.1145 23.9263 14.1785C24.1243 14.2405 24.2583 14.3425 24.4163 14.4785C24.4717 14.5268 24.544 14.551 24.6173 14.546C24.6907 14.5409 24.759 14.5069 24.8073 14.4515C24.8555 14.3961 24.8798 14.3237 24.8747 14.2504C24.8697 14.1771 24.8357 14.1088 24.7803 14.0605Z" fill="black" fill-opacity="0.87"/>
</g>
<g filter="url(#filter11_i_4632_7257)">
<path d="M17.6355 13.9508C18.1601 13.6435 18.7711 13.517 19.3745 13.5908C19.4107 13.5952 19.4457 13.6067 19.4774 13.6246C19.5092 13.6425 19.5371 13.6665 19.5595 13.6952C19.582 13.7239 19.5986 13.7567 19.6084 13.7919C19.6182 13.827 19.6209 13.8637 19.6165 13.8998C19.6121 13.936 19.6007 13.971 19.5827 14.0027C19.5648 14.0345 19.5409 14.0624 19.5122 14.0848C19.4835 14.1073 19.4506 14.1239 19.4155 14.1337C19.3804 14.1435 19.3437 14.1462 19.3075 14.1418C18.8265 14.0828 18.3393 14.1829 17.9205 14.4268C17.8891 14.4456 17.8584 14.4656 17.8285 14.4868L17.8265 14.4888C17.7683 14.5339 17.6946 14.554 17.6215 14.5448C17.5485 14.5355 17.4821 14.4975 17.437 14.4393C17.392 14.3811 17.3718 14.3074 17.3811 14.2343C17.3904 14.1613 17.4283 14.0949 17.4865 14.0498L17.6355 13.9508Z" fill="black" fill-opacity="0.87"/>
</g>
<g filter="url(#filter12_if_4632_7257)">
<path d="M21.2808 11.4247C21.2571 11.3801 21.2348 11.3347 21.2138 11.2887C21.1649 11.1655 21.0801 11.0597 20.9705 10.985C20.8609 10.9103 20.7314 10.8702 20.5988 10.8697H19.3258C17.4808 10.8697 15.9848 12.3827 15.9848 14.2497V14.5247C15.6448 14.2647 15.2168 13.7197 15.2168 12.8367C15.2168 11.7647 15.9988 11.2227 16.4968 10.8767C16.6378 10.7797 16.7568 10.6977 16.8278 10.6237L16.9278 10.5187C17.2778 10.1487 17.8998 9.48875 18.9878 9.19875C19.4804 9.07392 19.9879 9.01839 20.4958 9.03375C20.9678 9.04575 21.3018 9.45375 21.3018 9.92675V11.4117L21.2808 11.4247Z" fill="#23181C"/>
<path d="M21.2808 11.4247C21.2571 11.3801 21.2348 11.3347 21.2138 11.2887C21.1649 11.1655 21.0801 11.0597 20.9705 10.985C20.8609 10.9103 20.7314 10.8702 20.5988 10.8697H19.3258C17.4808 10.8697 15.9848 12.3827 15.9848 14.2497V14.5247C15.6448 14.2647 15.2168 13.7197 15.2168 12.8367C15.2168 11.7647 15.9988 11.2227 16.4968 10.8767C16.6378 10.7797 16.7568 10.6977 16.8278 10.6237L16.9278 10.5187C17.2778 10.1487 17.8998 9.48875 18.9878 9.19875C19.4804 9.07392 19.9879 9.01839 20.4958 9.03375C20.9678 9.04575 21.3018 9.45375 21.3018 9.92675V11.4117L21.2808 11.4247Z" fill="url(#paint43_radial_4632_7257)"/>
<path d="M21.2808 11.4247C21.2571 11.3801 21.2348 11.3347 21.2138 11.2887C21.1649 11.1655 21.0801 11.0597 20.9705 10.985C20.8609 10.9103 20.7314 10.8702 20.5988 10.8697H19.3258C17.4808 10.8697 15.9848 12.3827 15.9848 14.2497V14.5247C15.6448 14.2647 15.2168 13.7197 15.2168 12.8367C15.2168 11.7647 15.9988 11.2227 16.4968 10.8767C16.6378 10.7797 16.7568 10.6977 16.8278 10.6237L16.9278 10.5187C17.2778 10.1487 17.8998 9.48875 18.9878 9.19875C19.4804 9.07392 19.9879 9.01839 20.4958 9.03375C20.9678 9.04575 21.3018 9.45375 21.3018 9.92675V11.4117L21.2808 11.4247Z" fill="url(#paint44_radial_4632_7257)"/>
</g>
<g filter="url(#filter13_f_4632_7257)">
<path d="M26.2608 14.6912L26.2308 14.0602C26.2208 13.2972 25.5908 12.6672 24.8258 12.6342H23.4258C22.5368 12.6342 21.7258 12.1492 21.3018 11.3742C21.3018 11.3742 21.2438 11.2392 21.1818 11.0072C20.9258 10.0372 21.8528 9.29418 22.8378 9.48518C23.8108 9.67518 24.9198 10.0022 25.7398 10.5372C27.4838 11.6752 27.1808 13.7252 26.2608 14.6912Z" fill="#1F151B"/>
<path d="M26.2608 14.6912L26.2308 14.0602C26.2208 13.2972 25.5908 12.6672 24.8258 12.6342H23.4258C22.5368 12.6342 21.7258 12.1492 21.3018 11.3742C21.3018 11.3742 21.2438 11.2392 21.1818 11.0072C20.9258 10.0372 21.8528 9.29418 22.8378 9.48518C23.8108 9.67518 24.9198 10.0022 25.7398 10.5372C27.4838 11.6752 27.1808 13.7252 26.2608 14.6912Z" fill="url(#paint45_radial_4632_7257)"/>
<path d="M26.2608 14.6912L26.2308 14.0602C26.2208 13.2972 25.5908 12.6672 24.8258 12.6342H23.4258C22.5368 12.6342 21.7258 12.1492 21.3018 11.3742C21.3018 11.3742 21.2438 11.2392 21.1818 11.0072C20.9258 10.0372 21.8528 9.29418 22.8378 9.48518C23.8108 9.67518 24.9198 10.0022 25.7398 10.5372C27.4838 11.6752 27.1808 13.7252 26.2608 14.6912Z" fill="url(#paint46_radial_4632_7257)"/>
<path d="M26.2608 14.6912L26.2308 14.0602C26.2208 13.2972 25.5908 12.6672 24.8258 12.6342H23.4258C22.5368 12.6342 21.7258 12.1492 21.3018 11.3742C21.3018 11.3742 21.2438 11.2392 21.1818 11.0072C20.9258 10.0372 21.8528 9.29418 22.8378 9.48518C23.8108 9.67518 24.9198 10.0022 25.7398 10.5372C27.4838 11.6752 27.1808 13.7252 26.2608 14.6912Z" fill="url(#paint47_radial_4632_7257)"/>
</g>
<path d="M23.4372 15.375C24.0902 15.375 24.6422 15.825 24.7922 16.434C24.8022 16.4745 24.8029 16.5169 24.7941 16.5577C24.7853 16.5985 24.7673 16.6368 24.7414 16.6696C24.7156 16.7024 24.6826 16.7289 24.6449 16.747C24.6073 16.7651 24.566 16.7743 24.5242 16.774H22.2932C22.2595 16.7741 22.2261 16.7668 22.1955 16.7526C22.1649 16.7383 22.1378 16.7176 22.1162 16.6917C22.0945 16.6658 22.0788 16.6355 22.0702 16.6029C22.0615 16.5703 22.0602 16.5362 22.0662 16.503C22.1287 16.1853 22.2996 15.8992 22.5496 15.6934C22.7997 15.4877 23.1134 15.3752 23.4372 15.375Z" fill="white"/>
<path d="M23.2305 15.6475C23.3676 15.6476 23.5029 15.6793 23.6258 15.7401C23.7487 15.801 23.8559 15.8893 23.9391 15.9984C24.0223 16.1074 24.0793 16.2341 24.1055 16.3687C24.1318 16.5033 24.1266 16.6422 24.0905 16.7745H22.3665C22.3309 16.6418 22.3263 16.5028 22.3531 16.3681C22.3798 16.2334 22.4371 16.1067 22.5206 15.9976C22.6041 15.8886 22.7116 15.8003 22.8347 15.7394C22.9577 15.6785 23.0932 15.6477 23.2305 15.6475Z" fill="url(#paint48_radial_4632_7257)"/>
<path d="M22.7207 16.5403C22.7207 16.2563 22.9477 16.0293 23.2317 16.0293C23.3199 16.0284 23.4068 16.0505 23.4839 16.0933C23.561 16.1361 23.6256 16.1982 23.6715 16.2735C23.7174 16.3488 23.7429 16.4348 23.7456 16.5229C23.7482 16.6111 23.7279 16.6984 23.6867 16.7763H22.7817C22.741 16.7044 22.7203 16.6229 22.7217 16.5403" fill="black" fill-opacity="0.87"/>
<g filter="url(#filter14_f_4632_7257)">
<path d="M23.1667 15.8363C23.2297 15.9213 23.0967 16.0263 22.9467 16.1383C22.7947 16.2513 22.6827 16.3313 22.6187 16.2453C22.5557 16.1603 22.6267 16.0003 22.7777 15.8873C22.9277 15.7743 23.1027 15.7503 23.1667 15.8363Z" fill="#C7A7A3"/>
<path d="M23.1667 15.8363C23.2297 15.9213 23.0967 16.0263 22.9467 16.1383C22.7947 16.2513 22.6827 16.3313 22.6187 16.2453C22.5557 16.1603 22.6267 16.0003 22.7777 15.8873C22.9277 15.7743 23.1027 15.7503 23.1667 15.8363Z" fill="url(#paint49_radial_4632_7257)"/>
</g>
<g filter="url(#filter15_f_4632_7257)">
<path d="M24.0262 16.422C23.9998 16.2472 23.919 16.0852 23.7952 15.959L23.5352 16.244L23.6522 16.472L24.0262 16.422Z" fill="url(#paint50_linear_4632_7257)"/>
</g>
<path d="M18.6564 15.375C18.0034 15.375 17.4514 15.825 17.3014 16.434C17.2574 16.608 17.3914 16.774 17.5694 16.774H19.8004C19.8341 16.7741 19.8675 16.7668 19.8981 16.7526C19.9287 16.7383 19.9557 16.7176 19.9774 16.6917C19.9991 16.6658 20.0148 16.6355 20.0234 16.6029C20.0321 16.5703 20.0334 16.5362 20.0274 16.503C19.9644 16.1857 19.7935 15.9 19.5438 15.6944C19.294 15.4888 18.9799 15.376 18.6564 15.375Z" fill="white"/>
<path d="M18.8625 15.6465C18.7252 15.6465 18.5898 15.6782 18.4668 15.7391C18.3438 15.8 18.2366 15.8885 18.1534 15.9977C18.0701 16.1068 18.0132 16.2337 17.9871 16.3684C17.9609 16.5032 17.9662 16.6421 18.0025 16.7745H19.7265C19.7473 16.6975 19.7581 16.6182 19.7585 16.5385C19.7566 16.3018 19.6615 16.0754 19.4938 15.9084C19.326 15.7414 19.0992 15.6473 18.8625 15.6465Z" fill="url(#paint51_radial_4632_7257)"/>
<path d="M19.3737 16.5403C19.374 16.4731 19.3609 16.4066 19.3353 16.3444C19.3097 16.2823 19.2721 16.2259 19.2246 16.1784C19.1771 16.1309 19.1207 16.0933 19.0586 16.0677C18.9964 16.0421 18.9299 16.029 18.8627 16.0293C18.7746 16.0286 18.6878 16.0508 18.6109 16.0937C18.5339 16.1365 18.4694 16.1987 18.4236 16.2739C18.3779 16.3492 18.3525 16.4351 18.3498 16.5232C18.3472 16.6112 18.3675 16.6984 18.4087 16.7763H19.3127C19.3519 16.7038 19.3728 16.6228 19.3737 16.5403Z" fill="black" fill-opacity="0.87"/>
<g filter="url(#filter16_f_4632_7257)">
<path d="M19.6778 16.4335C19.6778 16.1455 19.4438 15.9535 19.3798 15.8945L19.0918 16.1745L19.2698 16.5345L19.6778 16.4335Z" fill="url(#paint52_linear_4632_7257)"/>
</g>
<g filter="url(#filter17_f_4632_7257)">
<path d="M18.6873 16.2027C18.8776 16.1019 18.9906 15.9422 18.9397 15.846C18.8887 15.7499 18.6932 15.7537 18.5028 15.8545C18.3125 15.9554 18.1995 16.115 18.2504 16.2112C18.3014 16.3073 18.4969 16.3035 18.6873 16.2027Z" fill="#C7A7A3" fill-opacity="0.9"/>
<path d="M18.6873 16.2027C18.8776 16.1019 18.9906 15.9422 18.9397 15.846C18.8887 15.7499 18.6932 15.7537 18.5028 15.8545C18.3125 15.9554 18.1995 16.115 18.2504 16.2112C18.3014 16.3073 18.4969 16.3035 18.6873 16.2027Z" fill="url(#paint53_radial_4632_7257)"/>
</g>
<path d="M25.9688 18.3805C26.0347 17.3165 26.0987 16.2535 26.1537 15.1895C26.5407 15.2595 26.8887 15.4688 27.1319 15.7779C27.3752 16.0869 27.4969 16.4743 27.4741 16.8669C27.4514 17.2595 27.2857 17.6302 27.0084 17.909C26.731 18.1879 26.3612 18.3556 25.9688 18.3805Z" fill="url(#paint54_linear_4632_7257)"/>
<path d="M25.9688 18.3805C26.0347 17.3165 26.0987 16.2535 26.1537 15.1895C26.5407 15.2595 26.8887 15.4688 27.1319 15.7779C27.3752 16.0869 27.4969 16.4743 27.4741 16.8669C27.4514 17.2595 27.2857 17.6302 27.0084 17.909C26.731 18.1879 26.3612 18.3556 25.9688 18.3805Z" fill="url(#paint55_radial_4632_7257)"/>
<path d="M25.9688 18.3805C26.0347 17.3165 26.0987 16.2535 26.1537 15.1895C26.5407 15.2595 26.8887 15.4688 27.1319 15.7779C27.3752 16.0869 27.4969 16.4743 27.4741 16.8669C27.4514 17.2595 27.2857 17.6302 27.0084 17.909C26.731 18.1879 26.3612 18.3556 25.9688 18.3805Z" fill="url(#paint56_radial_4632_7257)"/>
<path d="M25.9688 18.3805C26.0347 17.3165 26.0987 16.2535 26.1537 15.1895C26.5407 15.2595 26.8887 15.4688 27.1319 15.7779C27.3752 16.0869 27.4969 16.4743 27.4741 16.8669C27.4514 17.2595 27.2857 17.6302 27.0084 17.909C26.731 18.1879 26.3612 18.3556 25.9688 18.3805Z" fill="url(#paint57_radial_4632_7257)"/>
<path d="M16.0033 15.1816C15.6187 15.2359 15.2665 15.4267 15.0109 15.7191C14.7554 16.0116 14.6135 16.3862 14.6113 16.7746C14.6113 17.6346 15.2843 18.3356 16.1313 18.3816C16.0668 17.316 16.0241 16.2491 16.0033 15.1816Z" fill="url(#paint58_linear_4632_7257)"/>
<path d="M16.0033 15.1816C15.6187 15.2359 15.2665 15.4267 15.0109 15.7191C14.7554 16.0116 14.6135 16.3862 14.6113 16.7746C14.6113 17.6346 15.2843 18.3356 16.1313 18.3816C16.0668 17.316 16.0241 16.2491 16.0033 15.1816Z" fill="url(#paint59_radial_4632_7257)"/>
<g filter="url(#filter18_f_4632_7257)">
<path d="M15.9615 15.8428C15.7434 15.8927 15.5497 16.0175 15.4142 16.1955C15.2786 16.3735 15.2098 16.5934 15.2197 16.8169C15.2296 17.0404 15.3175 17.2534 15.4682 17.4187C15.6189 17.5841 15.8229 17.6913 16.0445 17.7218C16.0092 17.0955 15.9816 16.4688 15.9615 15.8418" fill="url(#paint60_radial_4632_7257)"/>
</g>
<g filter="url(#filter19_f_4632_7257)">
<path d="M26.0527 17.738C26.0907 17.103 26.1287 16.469 26.1627 15.834C26.4025 15.865 26.6217 15.9858 26.776 16.1719C26.9303 16.3581 27.0083 16.5958 26.9944 16.8372C26.9804 17.0786 26.8755 17.3057 26.7008 17.4729C26.5261 17.64 26.2945 17.7348 26.0527 17.738Z" fill="url(#paint61_linear_4632_7257)"/>
</g>
<g filter="url(#filter20_f_4632_7257)">
<path d="M17.6738 14.2324C17.9308 14.0484 18.5708 13.7234 19.3288 13.8514" stroke="#353535" stroke-width="0.25" stroke-linecap="round"/>
</g>
<g filter="url(#filter21_f_4632_7257)">
<path d="M24.6081 14.1855C24.3511 14.0005 23.7111 13.6765 22.9531 13.8045" stroke="#353535" stroke-width="0.25" stroke-linecap="round"/>
</g>
<defs>
<filter id="filter0_f_4632_7257" x="14.2129" y="22.0586" width="6.55664" height="14.5938" filterUnits="userSpaceOnUse" color-interpolation-filters="sRGB">
<feFlood flood-opacity="0" result="BackgroundImageFix"/>
<feBlend mode="normal" in="SourceGraphic" in2="BackgroundImageFix" result="shape"/>
<feGaussianBlur stdDeviation="0.5" result="effect1_foregroundBlur_4632_7257"/>
</filter>
<filter id="filter1_f_4632_7257" x="22.9609" y="22.5371" width="3.95117" height="13.3613" filterUnits="userSpaceOnUse" color-interpolation-filters="sRGB">
<feFlood flood-opacity="0" result="BackgroundImageFix"/>
<feBlend mode="normal" in="SourceGraphic" in2="BackgroundImageFix" result="shape"/>
<feGaussianBlur stdDeviation="0.375" result="effect1_foregroundBlur_4632_7257"/>
</filter>
<filter id="filter2_i_4632_7257" x="15.5039" y="22.3027" width="2.89688" height="14.0004" filterUnits="userSpaceOnUse" color-interpolation-filters="sRGB">
<feFlood flood-opacity="0" result="BackgroundImageFix"/>
<feBlend mode="normal" in="SourceGraphic" in2="BackgroundImageFix" result="shape"/>
<feColorMatrix in="SourceAlpha" type="matrix" values="0 0 0 0 0 0 0 0 0 0 0 0 0 0 0 0 0 0 127 0" result="hardAlpha"/>
<feOffset dx="0.1" dy="0.1"/>
<feGaussianBlur stdDeviation="0.1"/>
<feComposite in2="hardAlpha" operator="arithmetic" k2="-1" k3="1"/>
<feColorMatrix type="matrix" values="0 0 0 0 0.403922 0 0 0 0 0.368627 0 0 0 0 0.494118 0 0 0 1 0"/>
<feBlend mode="normal" in2="shape" result="effect1_innerShadow_4632_7257"/>
</filter>
<filter id="filter3_ii_4632_7257" x="19.6246" y="24.4391" width="2.7332" height="2.88125" filterUnits="userSpaceOnUse" color-interpolation-filters="sRGB">
<feFlood flood-opacity="0" result="BackgroundImageFix"/>
<feBlend mode="normal" in="SourceGraphic" in2="BackgroundImageFix" result="shape"/>
<feColorMatrix in="SourceAlpha" type="matrix" values="0 0 0 0 0 0 0 0 0 0 0 0 0 0 0 0 0 0 127 0" result="hardAlpha"/>
<feOffset dx="0.1" dy="-0.1"/>
<feGaussianBlur stdDeviation="0.25"/>
<feComposite in2="hardAlpha" operator="arithmetic" k2="-1" k3="1"/>
<feColorMatrix type="matrix" values="0 0 0 0 0.156863 0 0 0 0 0.0980392 0 0 0 0 0.215686 0 0 0 1 0"/>
<feBlend mode="normal" in2="shape" result="effect1_innerShadow_4632_7257"/>
<feColorMatrix in="SourceAlpha" type="matrix" values="0 0 0 0 0 0 0 0 0 0 0 0 0 0 0 0 0 0 127 0" result="hardAlpha"/>
<feOffset dx="-0.1" dy="-0.1"/>
<feGaussianBlur stdDeviation="0.25"/>
<feComposite in2="hardAlpha" operator="arithmetic" k2="-1" k3="1"/>
<feColorMatrix type="matrix" values="0 0 0 0 0.156863 0 0 0 0 0.0980392 0 0 0 0 0.215686 0 0 0 1 0"/>
<feBlend mode="normal" in2="effect1_innerShadow_4632_7257" result="effect2_innerShadow_4632_7257"/>
</filter>
<filter id="filter4_i_4632_7257" x="23.6109" y="22.252" width="2.90273" height="14.0492" filterUnits="userSpaceOnUse" color-interpolation-filters="sRGB">
<feFlood flood-opacity="0" result="BackgroundImageFix"/>
<feBlend mode="normal" in="SourceGraphic" in2="BackgroundImageFix" result="shape"/>
<feColorMatrix in="SourceAlpha" type="matrix" values="0 0 0 0 0 0 0 0 0 0 0 0 0 0 0 0 0 0 127 0" result="hardAlpha"/>
<feOffset dx="-0.1" dy="0.1"/>
<feGaussianBlur stdDeviation="0.1"/>
<feComposite in2="hardAlpha" operator="arithmetic" k2="-1" k3="1"/>
<feColorMatrix type="matrix" values="0 0 0 0 0.439216 0 0 0 0 0.415686 0 0 0 0 0.584314 0 0 0 1 0"/>
<feBlend mode="normal" in2="shape" result="effect1_innerShadow_4632_7257"/>
</filter>
<filter id="filter5_ii_4632_7257" x="15.9844" y="10.8691" width="11.2207" height="12.5418" filterUnits="userSpaceOnUse" color-interpolation-filters="sRGB">
<feFlood flood-opacity="0" result="BackgroundImageFix"/>
<feBlend mode="normal" in="SourceGraphic" in2="BackgroundImageFix" result="shape"/>
<feColorMatrix in="SourceAlpha" type="matrix" values="0 0 0 0 0 0 0 0 0 0 0 0 0 0 0 0 0 0 127 0" result="hardAlpha"/>
<feOffset dx="1"/>
<feGaussianBlur stdDeviation="0.7"/>
<feComposite in2="hardAlpha" operator="arithmetic" k2="-1" k3="1"/>
<feColorMatrix type="matrix" values="0 0 0 0 0.913725 0 0 0 0 0.686275 0 0 0 0 0.592157 0 0 0 1 0"/>
<feBlend mode="normal" in2="shape" result="effect1_innerShadow_4632_7257"/>
<feColorMatrix in="SourceAlpha" type="matrix" values="0 0 0 0 0 0 0 0 0 0 0 0 0 0 0 0 0 0 127 0" result="hardAlpha"/>
<feOffset dy="0.2"/>
<feGaussianBlur stdDeviation="0.375"/>
<feComposite in2="hardAlpha" operator="arithmetic" k2="-1" k3="1"/>
<feColorMatrix type="matrix" values="0 0 0 0 0.780392 0 0 0 0 0.568627 0 0 0 0 0.486275 0 0 0 1 0"/>
<feBlend mode="normal" in2="effect1_innerShadow_4632_7257" result="effect2_innerShadow_4632_7257"/>
</filter>
<filter id="filter6_f_4632_7257" x="19.0312" y="15.2109" width="3.74609" height="4.90039" filterUnits="userSpaceOnUse" color-interpolation-filters="sRGB">
<feFlood flood-opacity="0" result="BackgroundImageFix"/>
<feBlend mode="normal" in="SourceGraphic" in2="BackgroundImageFix" result="shape"/>
<feGaussianBlur stdDeviation="0.5" result="effect1_foregroundBlur_4632_7257"/>
</filter>
<filter id="filter7_f_4632_7257" x="19.9074" y="15.8195" width="2.27695" height="3.30039" filterUnits="userSpaceOnUse" color-interpolation-filters="sRGB">
<feFlood flood-opacity="0" result="BackgroundImageFix"/>
<feBlend mode="normal" in="SourceGraphic" in2="BackgroundImageFix" result="shape"/>
<feGaussianBlur stdDeviation="0.1" result="effect1_foregroundBlur_4632_7257"/>
</filter>
<filter id="filter8_f_4632_7257" x="19.1891" y="19.318" width="3.71563" height="1.59453" filterUnits="userSpaceOnUse" color-interpolation-filters="sRGB">
<feFlood flood-opacity="0" result="BackgroundImageFix"/>
<feBlend mode="normal" in="SourceGraphic" in2="BackgroundImageFix" result="shape"/>
<feGaussianBlur stdDeviation="0.05" result="effect1_foregroundBlur_4632_7257"/>
</filter>
<filter id="filter9_ii_4632_7257" x="14.6113" y="7.69336" width="12.873" height="8.35547" filterUnits="userSpaceOnUse" color-interpolation-filters="sRGB">
<feFlood flood-opacity="0" result="BackgroundImageFix"/>
<feBlend mode="normal" in="SourceGraphic" in2="BackgroundImageFix" result="shape"/>
<feColorMatrix in="SourceAlpha" type="matrix" values="0 0 0 0 0 0 0 0 0 0 0 0 0 0 0 0 0 0 127 0" result="hardAlpha"/>
<feOffset dy="-0.5"/>
<feGaussianBlur stdDeviation="0.625"/>
<feComposite in2="hardAlpha" operator="arithmetic" k2="-1" k3="1"/>
<feColorMatrix type="matrix" values="0 0 0 0 0.137255 0 0 0 0 0.0901961 0 0 0 0 0.145098 0 0 0 1 0"/>
<feBlend mode="normal" in2="shape" result="effect1_innerShadow_4632_7257"/>
<feColorMatrix in="SourceAlpha" type="matrix" values="0 0 0 0 0 0 0 0 0 0 0 0 0 0 0 0 0 0 127 0" result="hardAlpha"/>
<feOffset dy="-0.2"/>
<feGaussianBlur stdDeviation="0.2"/>
<feComposite in2="hardAlpha" operator="arithmetic" k2="-1" k3="1"/>
<feColorMatrix type="matrix" values="0 0 0 0 0.0784314 0 0 0 0 0.0352941 0 0 0 0 0.0470588 0 0 0 1 0"/>
<feBlend mode="normal" in2="effect1_innerShadow_4632_7257" result="effect2_innerShadow_4632_7257"/>
</filter>
<filter id="filter10_i_4632_7257" x="22.6367" y="13.3566" width="2.33828" height="1.19023" filterUnits="userSpaceOnUse" color-interpolation-filters="sRGB">
<feFlood flood-opacity="0" result="BackgroundImageFix"/>
<feBlend mode="normal" in="SourceGraphic" in2="BackgroundImageFix" result="shape"/>
<feColorMatrix in="SourceAlpha" type="matrix" values="0 0 0 0 0 0 0 0 0 0 0 0 0 0 0 0 0 0 127 0" result="hardAlpha"/>
<feOffset dx="0.1" dy="-0.2"/>
<feGaussianBlur stdDeviation="0.125"/>
<feComposite in2="hardAlpha" operator="arithmetic" k2="-1" k3="1"/>
<feColorMatrix type="matrix" values="0 0 0 0 0.0588235 0 0 0 0 0.054902 0 0 0 0 0.0588235 0 0 0 1 0"/>
<feBlend mode="normal" in2="shape" result="effect1_innerShadow_4632_7257"/>
</filter>
<filter id="filter11_i_4632_7257" x="17.3789" y="13.3703" width="2.34023" height="1.17656" filterUnits="userSpaceOnUse" color-interpolation-filters="sRGB">
<feFlood flood-opacity="0" result="BackgroundImageFix"/>
<feBlend mode="normal" in="SourceGraphic" in2="BackgroundImageFix" result="shape"/>
<feColorMatrix in="SourceAlpha" type="matrix" values="0 0 0 0 0 0 0 0 0 0 0 0 0 0 0 0 0 0 127 0" result="hardAlpha"/>
<feOffset dx="0.1" dy="-0.2"/>
<feGaussianBlur stdDeviation="0.125"/>
<feComposite in2="hardAlpha" operator="arithmetic" k2="-1" k3="1"/>
<feColorMatrix type="matrix" values="0 0 0 0 0.0588235 0 0 0 0 0.054902 0 0 0 0 0.0588235 0 0 0 1 0"/>
<feBlend mode="normal" in2="shape" result="effect1_innerShadow_4632_7257"/>
</filter>
<filter id="filter12_if_4632_7257" x="14.9668" y="8.78125" width="6.73594" height="5.99414" filterUnits="userSpaceOnUse" color-interpolation-filters="sRGB">
<feFlood flood-opacity="0" result="BackgroundImageFix"/>
<feBlend mode="normal" in="SourceGraphic" in2="BackgroundImageFix" result="shape"/>
<feColorMatrix in="SourceAlpha" type="matrix" values="0 0 0 0 0 0 0 0 0 0 0 0 0 0 0 0 0 0 127 0" result="hardAlpha"/>
<feOffset dx="0.4" dy="0.2"/>
<feGaussianBlur stdDeviation="0.2"/>
<feComposite in2="hardAlpha" operator="arithmetic" k2="-1" k3="1"/>
<feColorMatrix type="matrix" values="0 0 0 0 0.286275 0 0 0 0 0.243137 0 0 0 0 0.227451 0 0 0 1 0"/>
<feBlend mode="normal" in2="shape" result="effect1_innerShadow_4632_7257"/>
<feGaussianBlur stdDeviation="0.125" result="effect2_foregroundBlur_4632_7257"/>
</filter>
<filter id="filter13_f_4632_7257" x="20.8887" y="9.20508" width="6.36133" height="5.73633" filterUnits="userSpaceOnUse" color-interpolation-filters="sRGB">
<feFlood flood-opacity="0" result="BackgroundImageFix"/>
<feBlend mode="normal" in="SourceGraphic" in2="BackgroundImageFix" result="shape"/>
<feGaussianBlur stdDeviation="0.125" result="effect1_foregroundBlur_4632_7257"/>
</filter>
<filter id="filter14_f_4632_7257" x="22.4957" y="15.6852" width="0.787891" height="0.696094" filterUnits="userSpaceOnUse" color-interpolation-filters="sRGB">
<feFlood flood-opacity="0" result="BackgroundImageFix"/>
<feBlend mode="normal" in="SourceGraphic" in2="BackgroundImageFix" result="shape"/>
<feGaussianBlur stdDeviation="0.05" result="effect1_foregroundBlur_4632_7257"/>
</filter>
<filter id="filter15_f_4632_7257" x="23.3352" y="15.759" width="0.890234" height="0.913672" filterUnits="userSpaceOnUse" color-interpolation-filters="sRGB">
<feFlood flood-opacity="0" result="BackgroundImageFix"/>
<feBlend mode="normal" in="SourceGraphic" in2="BackgroundImageFix" result="shape"/>
<feGaussianBlur stdDeviation="0.1" result="effect1_foregroundBlur_4632_7257"/>
</filter>
<filter id="filter16_f_4632_7257" x="18.8918" y="15.6945" width="0.985938" height="1.04063" filterUnits="userSpaceOnUse" color-interpolation-filters="sRGB">
<feFlood flood-opacity="0" result="BackgroundImageFix"/>
<feBlend mode="normal" in="SourceGraphic" in2="BackgroundImageFix" result="shape"/>
<feGaussianBlur stdDeviation="0.1" result="effect1_foregroundBlur_4632_7257"/>
</filter>
<filter id="filter17_f_4632_7257" x="18.1383" y="15.6754" width="0.912891" height="0.705859" filterUnits="userSpaceOnUse" color-interpolation-filters="sRGB">
<feFlood flood-opacity="0" result="BackgroundImageFix"/>
<feBlend mode="normal" in="SourceGraphic" in2="BackgroundImageFix" result="shape"/>
<feGaussianBlur stdDeviation="0.05" result="effect1_foregroundBlur_4632_7257"/>
</filter>
<filter id="filter18_f_4632_7257" x="14.9688" y="15.5918" width="1.32617" height="2.38086" filterUnits="userSpaceOnUse" color-interpolation-filters="sRGB">
<feFlood flood-opacity="0" result="BackgroundImageFix"/>
<feBlend mode="normal" in="SourceGraphic" in2="BackgroundImageFix" result="shape"/>
<feGaussianBlur stdDeviation="0.125" result="effect1_foregroundBlur_4632_7257"/>
</filter>
<filter id="filter19_f_4632_7257" x="25.5527" y="15.334" width="1.94336" height="2.9043" filterUnits="userSpaceOnUse" color-interpolation-filters="sRGB">
<feFlood flood-opacity="0" result="BackgroundImageFix"/>
<feBlend mode="normal" in="SourceGraphic" in2="BackgroundImageFix" result="shape"/>
<feGaussianBlur stdDeviation="0.25" result="effect1_foregroundBlur_4632_7257"/>
</filter>
<filter id="filter20_f_4632_7257" x="17.2988" y="13.4473" width="2.4043" height="1.16016" filterUnits="userSpaceOnUse" color-interpolation-filters="sRGB">
<feFlood flood-opacity="0" result="BackgroundImageFix"/>
<feBlend mode="normal" in="SourceGraphic" in2="BackgroundImageFix" result="shape"/>
<feGaussianBlur stdDeviation="0.125" result="effect1_foregroundBlur_4632_7257"/>
</filter>
<filter id="filter21_f_4632_7257" x="22.5781" y="13.4004" width="2.4043" height="1.16016" filterUnits="userSpaceOnUse" color-interpolation-filters="sRGB">
<feFlood flood-opacity="0" result="BackgroundImageFix"/>
<feBlend mode="normal" in="SourceGraphic" in2="BackgroundImageFix" result="shape"/>
<feGaussianBlur stdDeviation="0.125" result="effect1_foregroundBlur_4632_7257"/>
</filter>
<linearGradient id="paint0_linear_4632_7257" x1="21" y1="22.5229" x2="21" y2="37.4599" gradientUnits="userSpaceOnUse">
<stop stop-color="#534973"/>
<stop offset="1" stop-color="#584982"/>
</linearGradient>
<radialGradient id="paint1_radial_4632_7257" cx="0" cy="0" r="1" gradientUnits="userSpaceOnUse" gradientTransform="translate(27.995 31.7039) rotate(-90) scale(16.4313 6.37009)">
<stop offset="0.156" stop-color="#7B74A6"/>
<stop offset="1" stop-color="#5F5490" stop-opacity="0"/>
</radialGradient>
<radialGradient id="paint2_radial_4632_7257" cx="0" cy="0" r="1" gradientUnits="userSpaceOnUse" gradientTransform="translate(20.9991 29.277) rotate(90) scale(10.1215 4.59696)">
<stop offset="0.397" stop-color="#C6BBD1"/>
<stop offset="1" stop-color="#A89CB3"/>
</radialGradient>
<linearGradient id="paint3_linear_4632_7257" x1="23.9021" y1="31.523" x2="22.0581" y2="31.523" gradientUnits="userSpaceOnUse">
<stop stop-color="#7A6C85"/>
<stop offset="1" stop-color="#C7BCD2" stop-opacity="0"/>
</linearGradient>
<linearGradient id="paint4_linear_4632_7257" x1="20.5901" y1="24.07" x2="20.6681" y2="27.96" gradientUnits="userSpaceOnUse">
<stop stop-color="#877F93"/>
<stop offset="1" stop-color="#877F93" stop-opacity="0"/>
</linearGradient>
<radialGradient id="paint5_radial_4632_7257" cx="0" cy="0" r="1" gradientUnits="userSpaceOnUse" gradientTransform="translate(30 36.2115) rotate(-90) scale(10.3135 1.68433)">
<stop stop-color="#776D9F"/>
<stop offset="1" stop-color="#6D6193"/>
</radialGradient>
<linearGradient id="paint6_linear_4632_7257" x1="28" y1="35.6975" x2="28.744" y2="35.6745" gradientUnits="userSpaceOnUse">
<stop offset="0.276" stop-color="#504176"/>
<stop offset="1" stop-color="#504176" stop-opacity="0"/>
</linearGradient>
<linearGradient id="paint7_linear_4632_7257" x1="16.9027" y1="22.3027" x2="16.9027" y2="36.2017" gradientUnits="userSpaceOnUse">
<stop stop-color="#544A76"/>
<stop offset="0.524" stop-color="#5F5289"/>
</linearGradient>
<linearGradient id="paint8_linear_4632_7257" x1="18.6717" y1="28.7617" x2="18.0507" y2="28.7617" gradientUnits="userSpaceOnUse">
<stop stop-color="#3E305B"/>
<stop offset="1" stop-color="#553A63" stop-opacity="0"/>
</linearGradient>
<radialGradient id="paint9_radial_4632_7257" cx="0" cy="0" r="1" gradientUnits="userSpaceOnUse" gradientTransform="translate(18.7158 22.5867) rotate(126.18) scale(2.59394 3.59462)">
<stop stop-color="#3C2E57"/>
<stop offset="1" stop-color="#3C2E57" stop-opacity="0"/>
</radialGradient>
<linearGradient id="paint10_linear_4632_7257" x1="16.9027" y1="32.1787" x2="17.8397" y2="31.7767" gradientUnits="userSpaceOnUse">
<stop offset="0.196" stop-color="#55477C"/>
<stop offset="1" stop-color="#594C7D" stop-opacity="0"/>
</linearGradient>
<radialGradient id="paint11_radial_4632_7257" cx="0" cy="0" r="1" gradientUnits="userSpaceOnUse" gradientTransform="translate(16.3957 25.9677) rotate(-15.9454) scale(1.13752 0.559018)">
<stop offset="0.241" stop-color="#4B3B6D"/>
<stop offset="1" stop-color="#4B3B6D" stop-opacity="0"/>
</radialGradient>
<linearGradient id="paint12_linear_4632_7257" x1="20.9879" y1="25.1951" x2="20.9879" y2="27.1791" gradientUnits="userSpaceOnUse">
<stop offset="0.006" stop-color="#4B375E"/>
<stop offset="1" stop-color="#483B55"/>
</linearGradient>
<linearGradient id="paint13_linear_4632_7257" x1="23.7109" y1="27.809" x2="25.1119" y2="27.809" gradientUnits="userSpaceOnUse">
<stop offset="0.093" stop-color="#453D68"/>
<stop offset="1" stop-color="#625A91" stop-opacity="0"/>
</linearGradient>
<radialGradient id="paint14_radial_4632_7257" cx="0" cy="0" r="1" gradientUnits="userSpaceOnUse" gradientTransform="translate(20.9991 24.7266) rotate(90) scale(3.75 4.3769)">
<stop offset="0.362" stop-color="#CAC3D3"/>
<stop offset="1" stop-color="#A093A3"/>
</radialGradient>
<radialGradient id="paint15_radial_4632_7257" cx="0" cy="0" r="1" gradientUnits="userSpaceOnUse" gradientTransform="translate(20.9991 27.2226) rotate(-90) scale(5.1875 6.81546)">
<stop offset="0.533" stop-color="#837A8D" stop-opacity="0"/>
<stop offset="0.876" stop-color="#544A5F"/>
</radialGradient>
<linearGradient id="paint16_linear_4632_7257" x1="14.452" y1="30.22" x2="12.02" y2="30.22" gradientUnits="userSpaceOnUse">
<stop stop-color="#41375C"/>
<stop offset="1" stop-color="#584A7E" stop-opacity="0"/>
</linearGradient>
<radialGradient id="paint17_radial_4632_7257" cx="0" cy="0" r="1" gradientUnits="userSpaceOnUse" gradientTransform="translate(20.9827 27.6183) rotate(90) scale(8.8125 3.45478)">
<stop offset="0.006" stop-color="#56406D"/>
<stop offset="0.94" stop-color="#3D3247"/>
</radialGradient>
<linearGradient id="paint18_linear_4632_7257" x1="19.6057" y1="31.0833" x2="19.8987" y2="31.1223" gradientUnits="userSpaceOnUse">
<stop stop-color="#2B1B3A"/>
<stop offset="1" stop-color="#2B1B3A" stop-opacity="0"/>
</linearGradient>
<linearGradient id="paint19_linear_4632_7257" x1="22.4107" y1="30.8993" x2="22.0117" y2="30.9463" gradientUnits="userSpaceOnUse">
<stop stop-color="#2B1B3A"/>
<stop offset="1" stop-color="#2B1B3A" stop-opacity="0"/>
</linearGradient>
<radialGradient id="paint20_radial_4632_7257" cx="0" cy="0" r="1" gradientUnits="userSpaceOnUse" gradientTransform="translate(22.4499 24.0804) rotate(-138.664) scale(1.89256 3.63)">
<stop stop-color="#C49391"/>
<stop offset="1" stop-color="#BC818D"/>
</radialGradient>
<radialGradient id="paint21_radial_4632_7257" cx="0" cy="0" r="1" gradientUnits="userSpaceOnUse" gradientTransform="translate(25.8001 17.9803) rotate(69.657) scale(2.15387 2.55864)">
<stop offset="0.215" stop-color="#313131"/>
<stop offset="1" stop-color="#1A161E"/>
</radialGradient>
<radialGradient id="paint22_radial_4632_7257" cx="0" cy="0" r="1" gradientUnits="userSpaceOnUse" gradientTransform="translate(14.9903 18.4715) rotate(17.4472) scale(1.54766 4.77464)">
<stop stop-color="#564943"/>
<stop offset="0.746" stop-color="#1E191C"/>
</radialGradient>
<radialGradient id="paint23_radial_4632_7257" cx="0" cy="0" r="1" gradientUnits="userSpaceOnUse" gradientTransform="translate(23.8554 17.0401) rotate(180) scale(5.22784 9.248)">
<stop stop-color="#FFDCC0"/>
<stop offset="1" stop-color="#D6A195"/>
</radialGradient>
<linearGradient id="paint24_linear_4632_7257" x1="26.2044" y1="18.7251" x2="21.8524" y2="18.7251" gradientUnits="userSpaceOnUse">
<stop stop-color="#FFD6BA"/>
<stop offset="1" stop-color="#FFD6BA" stop-opacity="0"/>
</linearGradient>
<radialGradient id="paint25_radial_4632_7257" cx="0" cy="0" r="1" gradientUnits="userSpaceOnUse" gradientTransform="translate(23.4944 15.7271) rotate(-90) scale(1.14835 1.42108)">
<stop offset="0.325" stop-color="#F6B8A8"/>
<stop offset="1" stop-color="#F6B8A8" stop-opacity="0"/>
</radialGradient>
<radialGradient id="paint26_radial_4632_7257" cx="0" cy="0" r="1" gradientUnits="userSpaceOnUse" gradientTransform="translate(18.7474 15.7741) rotate(-89.7942) scale(1.09428 1.19084)">
<stop offset="0.378" stop-color="#D39991"/>
<stop offset="1" stop-color="#D39991" stop-opacity="0"/>
</radialGradient>
<radialGradient id="paint27_radial_4632_7257" cx="0" cy="0" r="1" gradientUnits="userSpaceOnUse" gradientTransform="translate(24.4804 18.0281) rotate(176.388) scale(8.51288 21.7461)">
<stop offset="0.836" stop-color="#E6AD97" stop-opacity="0"/>
<stop offset="1" stop-color="#E6AD97"/>
</radialGradient>
<radialGradient id="paint28_radial_4632_7257" cx="0" cy="0" r="1" gradientUnits="userSpaceOnUse" gradientTransform="translate(15.5804 12.7151) rotate(-46.6113) scale(4.51041 1.65114)">
<stop offset="0.428" stop-color="#9F6D5C"/>
<stop offset="1" stop-color="#9F6D5C" stop-opacity="0"/>
</radialGradient>
<radialGradient id="paint29_radial_4632_7257" cx="0" cy="0" r="1" gradientUnits="userSpaceOnUse" gradientTransform="translate(23.4744 12.0611) rotate(121.159) scale(3.36898 2.78136)">
<stop offset="0.078" stop-color="#F6C3B0"/>
<stop offset="1" stop-color="#F6C3B0" stop-opacity="0"/>
</radialGradient>
<linearGradient id="paint30_linear_4632_7257" x1="21.0944" y1="23.4291" x2="21.0944" y2="21.1761" gradientUnits="userSpaceOnUse">
<stop stop-color="#AE6D91"/>
<stop offset="1" stop-color="#CF959D" stop-opacity="0"/>
</linearGradient>
<linearGradient id="paint31_linear_4632_7257" x1="21.8841" y1="17.7148" x2="21.0461" y2="17.7498" gradientUnits="userSpaceOnUse">
<stop offset="0.36" stop-color="#FFDFC7"/>
<stop offset="1" stop-color="#FFDFC7" stop-opacity="0"/>
</linearGradient>
<radialGradient id="paint32_radial_4632_7257" cx="0" cy="0" r="1" gradientUnits="userSpaceOnUse" gradientTransform="translate(21.5121 18.4008) rotate(90) scale(0.2441 0.76718)">
<stop stop-color="#FFDDC7"/>
<stop offset="1" stop-color="#FFDDC7" stop-opacity="0"/>
</radialGradient>
<linearGradient id="paint33_linear_4632_7257" x1="21.0461" y1="18.8538" x2="21.0461" y2="18.3888" gradientUnits="userSpaceOnUse">
<stop stop-color="#D89793"/>
<stop offset="1" stop-color="#D89793" stop-opacity="0"/>
</linearGradient>
<radialGradient id="paint34_radial_4632_7257" cx="0" cy="0" r="1" gradientUnits="userSpaceOnUse" gradientTransform="translate(21.6291 17.8308) rotate(155.369) scale(1.67341 2.6893)">
<stop offset="0.714" stop-color="#D3968C" stop-opacity="0"/>
<stop offset="1" stop-color="#D3968C"/>
</radialGradient>
<linearGradient id="paint35_linear_4632_7257" x1="21.0461" y1="16.0198" x2="21.0461" y2="16.6958" gradientUnits="userSpaceOnUse">
<stop stop-color="#E8BBA8"/>
<stop offset="1" stop-color="#E8BBA8" stop-opacity="0"/>
</linearGradient>
<linearGradient id="paint36_linear_4632_7257" x1="19.8447" y1="20.4253" x2="20.1637" y2="19.5903" gradientUnits="userSpaceOnUse">
<stop stop-color="#E1ACA6"/>
<stop offset="1" stop-color="#E1ACA6" stop-opacity="0"/>
</linearGradient>
<radialGradient id="paint37_radial_4632_7257" cx="0" cy="0" r="1" gradientUnits="userSpaceOnUse" gradientTransform="translate(21.0465 20.5788) rotate(-90) scale(0.72074 2.8997)">
<stop stop-color="#88014E"/>
<stop offset="1" stop-color="#86004D"/>
</radialGradient>
<linearGradient id="paint38_linear_4632_7257" x1="27.8992" y1="11.3774" x2="16.2872" y2="11.3774" gradientUnits="userSpaceOnUse">
<stop stop-color="#443D40"/>
<stop offset="1" stop-color="#272127"/>
</linearGradient>
<radialGradient id="paint39_radial_4632_7257" cx="0" cy="0" r="1" gradientUnits="userSpaceOnUse" gradientTransform="translate(15.8172 14.1474) rotate(-90) scale(3.50132 8.85443)">
<stop offset="0.536" stop-color="#3E3433"/>
<stop offset="1" stop-color="#3E3433" stop-opacity="0"/>
</radialGradient>
<radialGradient id="paint40_radial_4632_7257" cx="0" cy="0" r="1" gradientUnits="userSpaceOnUse" gradientTransform="translate(25.9082 15.4574) rotate(-87.4012) scale(2.51513 4.45631)">
<stop stop-color="#4F4D4D"/>
<stop offset="1" stop-color="#4F4D4D" stop-opacity="0"/>
</radialGradient>
<radialGradient id="paint41_radial_4632_7257" cx="0" cy="0" r="1" gradientUnits="userSpaceOnUse" gradientTransform="translate(25.154 9.18101) rotate(-146.667) scale(2.82328 2.07243)">
<stop stop-color="#5E5A5B"/>
<stop offset="1" stop-color="#5E5A5B" stop-opacity="0"/>
</radialGradient>
<radialGradient id="paint42_radial_4632_7257" cx="0" cy="0" r="1" gradientUnits="userSpaceOnUse" gradientTransform="translate(20.1422 7.58943) rotate(58.465) scale(1.73057 4.00716)">
<stop offset="0.287" stop-color="#484646"/>
<stop offset="1" stop-color="#484646" stop-opacity="0"/>
</radialGradient>
<radialGradient id="paint43_radial_4632_7257" cx="0" cy="0" r="1" gradientUnits="userSpaceOnUse" gradientTransform="translate(21.3008 9.84975) rotate(180) scale(2.20112 0.81692)">
<stop stop-color="#423C3F"/>
<stop offset="1" stop-color="#423C3F" stop-opacity="0"/>
</radialGradient>
<radialGradient id="paint44_radial_4632_7257" cx="0" cy="0" r="1" gradientUnits="userSpaceOnUse" gradientTransform="translate(15.6168 13.7917) rotate(-57.7244) scale(6.02661 6.67686)">
<stop offset="0.093" stop-color="#0B0306"/>
<stop offset="0.311" stop-color="#1C0C20"/>
<stop offset="1" stop-color="#1C0C20" stop-opacity="0"/>
</radialGradient>
<radialGradient id="paint45_radial_4632_7257" cx="0" cy="0" r="1" gradientUnits="userSpaceOnUse" gradientTransform="translate(24.4618 10.6252) scale(3.05838 1.19577)">
<stop stop-color="#4E494B"/>
<stop offset="1" stop-color="#4E494B" stop-opacity="0"/>
</radialGradient>
<radialGradient id="paint46_radial_4632_7257" cx="0" cy="0" r="1" gradientUnits="userSpaceOnUse" gradientTransform="translate(23.6808 13.6632) rotate(-43.6141) scale(3.69988 6.77353)">
<stop offset="0.857" stop-color="#545051" stop-opacity="0"/>
<stop offset="1" stop-color="#545051"/>
</radialGradient>
<radialGradient id="paint47_radial_4632_7257" cx="0" cy="0" r="1" gradientUnits="userSpaceOnUse" gradientTransform="translate(22.7958 12.1872) rotate(6.66666) scale(3.27031 1.36922)">
<stop stop-color="#200E25"/>
<stop offset="1" stop-color="#200E25" stop-opacity="0"/>
</radialGradient>
<radialGradient id="paint48_radial_4632_7257" cx="0" cy="0" r="1" gradientUnits="userSpaceOnUse" gradientTransform="translate(23.2295 16.1245) rotate(90) scale(0.81132 1.29049)">
<stop offset="0.802" stop-color="#7D574A"/>
<stop offset="1" stop-color="#664842"/>
</radialGradient>
<radialGradient id="paint49_radial_4632_7257" cx="0" cy="0" r="1" gradientUnits="userSpaceOnUse" gradientTransform="translate(23.0007 16.2083) rotate(-127.812) scale(0.378291 0.520811)">
<stop offset="0.766" stop-color="#FFE6E2" stop-opacity="0"/>
<stop offset="0.966" stop-color="#FFE6E2"/>
</radialGradient>
<linearGradient id="paint50_linear_4632_7257" x1="24.0072" y1="16.178" x2="23.6932" y2="16.371" gradientUnits="userSpaceOnUse">
<stop stop-color="#B4948D"/>
<stop offset="1" stop-color="#B4948D" stop-opacity="0"/>
</linearGradient>
<radialGradient id="paint51_radial_4632_7257" cx="0" cy="0" r="1" gradientUnits="userSpaceOnUse" gradientTransform="translate(18.8645 16.1235) rotate(90) scale(0.81136 1.29056)">
<stop offset="0.802" stop-color="#7D574A"/>
<stop offset="1" stop-color="#664842"/>
</radialGradient>
<linearGradient id="paint52_linear_4632_7257" x1="19.6088" y1="16.1775" x2="19.2948" y2="16.3705" gradientUnits="userSpaceOnUse">
<stop stop-color="#B4948D"/>
<stop offset="1" stop-color="#B4948D" stop-opacity="0"/>
</linearGradient>
<radialGradient id="paint53_radial_4632_7257" cx="0" cy="0" r="1" gradientUnits="userSpaceOnUse" gradientTransform="translate(18.7301 16.3135) rotate(-118.811) scale(0.494141 0.593993)">
<stop offset="0.766" stop-color="#FFE6E2" stop-opacity="0"/>
<stop offset="0.966" stop-color="#FFE6E2"/>
</radialGradient>
<linearGradient id="paint54_linear_4632_7257" x1="27.4828" y1="16.2045" x2="26.2768" y2="18.3805" gradientUnits="userSpaceOnUse">
<stop stop-color="#FFD6BD"/>
<stop offset="1" stop-color="#F0B8A6"/>
</linearGradient>
<radialGradient id="paint55_radial_4632_7257" cx="0" cy="0" r="1" gradientUnits="userSpaceOnUse" gradientTransform="translate(25.6647 16.1365) rotate(74.3475) scale(2.32966 2.22268)">
<stop offset="0.856" stop-color="#CE978E" stop-opacity="0"/>
<stop offset="1" stop-color="#CE978E"/>
</radialGradient>
<radialGradient id="paint56_radial_4632_7257" cx="0" cy="0" r="1" gradientUnits="userSpaceOnUse" gradientTransform="translate(26.0248 16.6815) rotate(-53.9198) scale(1.33768 1.12124)">
<stop offset="0.664" stop-color="#F7B99C"/>
<stop offset="1" stop-color="#F7B99C" stop-opacity="0"/>
</radialGradient>
<radialGradient id="paint57_radial_4632_7257" cx="0" cy="0" r="1" gradientUnits="userSpaceOnUse" gradientTransform="translate(26.1398 16.8545) rotate(-69.263) scale(1.65782 2.21508)">
<stop offset="0.803" stop-color="#EBBB9D" stop-opacity="0"/>
<stop offset="1" stop-color="#EBBB9D"/>
</radialGradient>
<linearGradient id="paint58_linear_4632_7257" x1="15.1973" y1="16.9086" x2="16.6553" y2="16.7816" gradientUnits="userSpaceOnUse">
<stop stop-color="#D19787"/>
<stop offset="1" stop-color="#C9887D"/>
</linearGradient>
<radialGradient id="paint59_radial_4632_7257" cx="0" cy="0" r="1" gradientUnits="userSpaceOnUse" gradientTransform="translate(16.1308 16.7811) rotate(-173.034) scale(1.62516 1.74453)">
<stop offset="0.775" stop-color="#E8AF99" stop-opacity="0"/>
<stop offset="1" stop-color="#E8AF99"/>
</radialGradient>
<radialGradient id="paint60_radial_4632_7257" cx="0" cy="0" r="1" gradientUnits="userSpaceOnUse" gradientTransform="translate(16.1325 16.7808) rotate(170.26) scale(0.929883 1.14101)">
<stop stop-color="#C18472"/>
<stop offset="1" stop-color="#CA8B7A"/>
</radialGradient>
<linearGradient id="paint61_linear_4632_7257" x1="26.5257" y1="15.834" x2="26.5257" y2="17.738" gradientUnits="userSpaceOnUse">
<stop stop-color="#F9BB9E"/>
<stop offset="1" stop-color="#F6BBA0"/>
</linearGradient>
</defs>
</svg>
