<svg width="20" height="20" viewBox="0 0 20 20" fill="none" xmlns="http://www.w3.org/2000/svg">
<path fill-rule="evenodd" clip-rule="evenodd" d="M16.8387 5.66084C16.9949 5.81711 17.0827 6.02903 17.0827 6.25C17.0827 6.47097 16.9949 6.6829 16.8387 6.83917L8.92203 14.7558C8.76575 14.9121 8.55383 14.9998 8.33286 14.9998C8.11189 14.9998 7.89997 14.9121 7.74369 14.7558L3.99369 11.0058C3.84189 10.8487 3.7579 10.6382 3.7598 10.4197C3.7617 10.2012 3.84934 9.99216 4.00384 9.83765C4.15835 9.68315 4.36736 9.59551 4.58586 9.59361C4.80436 9.59171 5.01486 9.6757 5.17203 9.8275L8.33286 12.9883L15.6604 5.66084C15.8166 5.50461 16.0286 5.41685 16.2495 5.41685C16.4705 5.41685 16.6824 5.50461 16.8387 5.66084Z" fill="white"/>
</svg>
