<svg xmlns="http://www.w3.org/2000/svg" width="40" height="41" viewBox="0 0 40 41" fill="none">
  <g clip-path="url(#clip0_2035_6589)">
    <path fill-rule="evenodd" clip-rule="evenodd" d="M0 20.8314C0 30.7747 7.22167 39.0431 16.6667 40.7197V26.2747H11.6667V20.7197H16.6667V16.2747C16.6667 11.2747 19.8883 8.49806 24.445 8.49806C25.8883 8.49806 27.445 8.71973 28.8883 8.94139V14.0531H26.3333C23.8883 14.0531 23.3333 15.2747 23.3333 16.8314V20.7197H28.6667L27.7783 26.2747H23.3333V40.7197C32.7783 39.0431 40 30.7764 40 20.8314C40 9.76973 31 0.719727 20 0.719727C9 0.719727 0 9.76973 0 20.8314Z" fill="#3D445C"/>
  </g>
  <defs>
    <clipPath id="clip0_2035_6589">
      <rect width="40" height="40" fill="white" transform="translate(0 0.719727)"/>
    </clipPath>
  </defs>
</svg>