<svg xmlns="http://www.w3.org/2000/svg">
  <symbol id="project" viewBox="0 0 24 24">
    <path d="M22.5656 11.4191L20.25 12.5722L17.25 6.83469L19.5938 5.66281C19.7679 5.57403 19.9701 5.55771 20.1563 5.61742C20.3425 5.67713 20.4975 5.80803 20.5875 5.98156L22.8937 10.3972C22.9405 10.4856 22.9691 10.5824 22.9779 10.682C22.9867 10.7817 22.9755 10.882 22.9449 10.9772C22.9143 11.0724 22.865 11.1606 22.7999 11.2365C22.7348 11.3123 22.6551 11.3744 22.5656 11.4191V11.4191Z" stroke="" stroke-width="1.5" stroke-linecap="round" stroke-linejoin="round"/>
<path d="M3.74984 12.4779L1.43422 11.3154C1.34506 11.2717 1.26559 11.2105 1.20055 11.1355C1.13551 11.0604 1.08622 10.9731 1.05561 10.8787C1.02499 10.7842 1.01369 10.6845 1.02236 10.5856C1.03103 10.4867 1.05951 10.3906 1.10609 10.3029L3.41234 5.88725C3.50256 5.71384 3.65691 5.58251 3.84253 5.52122C4.02814 5.45993 4.23035 5.47353 4.40609 5.55912L6.74984 6.731L3.74984 12.4779Z" stroke="" stroke-width="1.5" stroke-linecap="round" stroke-linejoin="round"/>
<path d="M20.25 12.5723L18.75 14.3348L15.3 17.7848C15.206 17.8727 15.092 17.9365 14.968 17.9708C14.8439 18.0051 14.7133 18.0088 14.5875 17.9816L9.15 16.6223C9.05067 16.5946 8.95812 16.5467 8.87812 16.4816L3.75 12.4785" stroke="" stroke-width="1.5" stroke-linecap="round" stroke-linejoin="round"/>
<path d="M18.7496 14.334L14.6246 11.334L13.4246 12.234C12.9047 12.622 12.2733 12.8317 11.6246 12.8317C10.9759 12.8317 10.3445 12.622 9.82459 12.234L9.31834 11.8496C9.23274 11.7845 9.16193 11.702 9.11061 11.6075C9.05929 11.513 9.02862 11.4087 9.02065 11.3014C9.01267 11.1942 9.02756 11.0865 9.06434 10.9854C9.10111 10.8844 9.15893 10.7923 9.23397 10.7152L12.909 7.04961C12.978 6.98092 13.0599 6.92652 13.15 6.88952C13.2401 6.85252 13.3366 6.83365 13.434 6.83399H17.2496" stroke="" stroke-width="1.5" stroke-linecap="round" stroke-linejoin="round"/>
<path d="M6.80664 6.73121L11.616 5.32496C11.7869 5.27595 11.9696 5.28924 12.1316 5.36246L15.3754 6.83433" stroke="" stroke-width="1.5" stroke-linecap="round" stroke-linejoin="round"/>
<path d="M10.5 19.9594L7.67813 19.2469C7.56313 19.2209 7.45666 19.166 7.36875 19.0875L5.25 17.25" stroke="" stroke-width="1.5" stroke-linecap="round" stroke-linejoin="round"/>
  </symbol>
</svg>
