<svg width="22" height="22" viewBox="0 0 22 22" fill="none" xmlns="http://www.w3.org/2000/svg">
<g id="Regular">
<path id="Vector" d="M4.30078 3.29883L17.4258 17.7363" stroke="black" stroke-opacity="0.87" stroke-width="1.5" stroke-linecap="round" stroke-linejoin="round"/>
<path id="Vector_2" d="M13.0696 12.9461C12.4674 13.4977 11.6796 13.8023 10.8629 13.7992C10.2007 13.7991 9.55392 13.5987 9.00772 13.2242C8.46151 12.8496 8.04142 12.3186 7.80267 11.7009C7.56392 11.0831 7.51768 10.4076 7.67004 9.76311C7.8224 9.11861 8.16621 8.53529 8.65629 8.08984" stroke="black" stroke-opacity="0.87" stroke-width="1.5" stroke-linecap="round" stroke-linejoin="round"/>
<path id="Vector_3" d="M6.43359 5.64453C3.08672 7.33437 1.67578 10.5172 1.67578 10.5172C1.67578 10.5172 4.30078 16.4234 10.8633 16.4234C12.401 16.436 13.9196 16.0816 15.293 15.3898" stroke="black" stroke-opacity="0.87" stroke-width="1.5" stroke-linecap="round" stroke-linejoin="round"/>
<path id="Vector_4" d="M17.4758 13.8891C19.2641 12.2895 20.0516 10.5176 20.0516 10.5176C20.0516 10.5176 17.4266 4.61135 10.8641 4.61135C10.2951 4.61023 9.72713 4.65687 9.16602 4.7508" stroke="black" stroke-opacity="0.87" stroke-width="1.5" stroke-linecap="round" stroke-linejoin="round"/>
<path id="Vector_5" d="M11.4785 7.29297C12.1763 7.42518 12.8122 7.78078 13.2901 8.30609C13.7681 8.83141 14.0622 9.49793 14.1281 10.2051" stroke="black" stroke-opacity="0.87" stroke-width="1.5" stroke-linecap="round" stroke-linejoin="round"/>
</g>
</svg>
