<svg xmlns="http://www.w3.org/2000/svg" width="40" height="41" viewBox="0 0 40 41" fill="none">
  <path d="M20.0008 1.51978C9.39678 1.51978 0.800781 10.1158 0.800781 20.7198C0.800781 31.3238 9.39678 39.9198 20.0008 39.9198C30.6048 39.9198 39.2008 31.3238 39.2008 20.7198C39.2008 10.1158 30.6048 1.51978 20.0008 1.51978ZM15.3008 28.6778H11.4128V16.1658H15.3008V28.6778ZM13.3328 14.6298C12.1048 14.6298 11.3108 13.7598 11.3108 12.6838C11.3108 11.5858 12.1288 10.7418 13.3828 10.7418C14.6368 10.7418 15.4048 11.5858 15.4288 12.6838C15.4288 13.7598 14.6368 14.6298 13.3328 14.6298ZM29.5008 28.6778H25.6128V21.7438C25.6128 20.1298 25.0488 19.0338 23.6428 19.0338C22.5688 19.0338 21.9308 19.7758 21.6488 20.4898C21.5448 20.7438 21.5188 21.1038 21.5188 21.4618V28.6758H17.6288V20.1558C17.6288 18.5938 17.5788 17.2878 17.5268 16.1638H20.9048L21.0828 17.9018H21.1608C21.6728 17.0858 22.9268 15.8818 25.0248 15.8818C27.5828 15.8818 29.5008 17.5958 29.5008 21.2798V28.6778Z" fill="#3D445C"/>
</svg>