<svg xmlns="http://www.w3.org/2000/svg" width="23" height="23" viewBox="0 0 23 23" fill="none">
  <path d="M11.3377 11.051C10.7237 11.051 10.1349 10.8147 9.70073 10.3939C9.26656 9.97315 9.02265 9.40248 9.02265 8.80744C9.02265 8.21241 9.26656 7.64174 9.70073 7.22098C10.1349 6.80023 10.7237 6.56385 11.3377 6.56385C11.9518 6.56385 12.5406 6.80023 12.9748 7.22098C13.4089 7.64174 13.6529 8.21241 13.6529 8.80744C13.6529 9.10207 13.593 9.39382 13.4766 9.66603C13.3603 9.93823 13.1897 10.1856 12.9748 10.3939C12.7598 10.6022 12.5046 10.7675 12.2237 10.8802C11.9428 10.993 11.6418 11.051 11.3377 11.051ZM11.3377 2.52539C9.61854 2.52539 7.96975 3.18725 6.75408 4.36536C5.53842 5.54347 4.85547 7.14134 4.85547 8.80744C4.85547 13.519 11.3377 20.4741 11.3377 20.4741C11.3377 20.4741 17.82 13.519 17.82 8.80744C17.82 7.14134 17.1371 5.54347 15.9214 4.36536C14.7058 3.18725 13.057 2.52539 11.3377 2.52539Z" fill="#C9C9C9"/>
</svg>