<svg xmlns="http://www.w3.org/2000/svg" width="24" height="25" viewBox="0 0 24 25" fill="none">
  <path d="M4 12.5C4 10.3783 4.84285 8.34344 6.34315 6.84315C7.84344 5.34285 9.87827 4.5 12 4.5C14.1217 4.5 16.1566 5.34285 17.6569 6.84315C19.1571 8.34344 20 10.3783 20 12.5V17.59C20 18.438 20 18.86 19.874 19.199C19.7738 19.4676 19.617 19.7116 19.4143 19.9143C19.2116 20.117 18.9676 20.2738 18.699 20.374C18.36 20.5 17.937 20.5 17.09 20.5H12C9.87827 20.5 7.84344 19.6571 6.34315 18.1569C4.84285 16.6566 4 14.6217 4 12.5Z" stroke="#065AD8" stroke-width="2"/>
  <path d="M9 11.5H15M12 15.5H15" stroke="#065AD8" stroke-width="2" stroke-linecap="round" stroke-linejoin="round"/>
</svg>