<svg width="1062" height="867" viewBox="0 0 1062 867" fill="none" xmlns="http://www.w3.org/2000/svg">
<g id="No Results">
<g id="circle">
<path id="Stroke 1" d="M34.0371 398.087V407.087" stroke="#D2D8DF" stroke-width="2.921" stroke-linecap="round"/>
<g id="Group 8">
<path id="Stroke 2" d="M13.8223 402.964L21.1766 410.534" stroke="#D2D8DF" stroke-width="2.921" stroke-linecap="round"/>
<path id="Stroke 4" d="M5.2207 423.117H15.6196" stroke="#D2D8DF" stroke-width="2.921" stroke-linecap="round"/>
<path id="Stroke 6" d="M12.9785 443.628L20.3328 436.058" stroke="#D2D8DF" stroke-width="2.921" stroke-linecap="round"/>
</g>
<path id="Stroke 9" d="M34.0371 446.087V437.087" stroke="#D2D8DF" stroke-width="2.921" stroke-linecap="round"/>
<path id="Stroke 10" d="M49.0371 440.087L43.0371 434.087" stroke="#D2D8DF" stroke-width="2.921" stroke-linecap="round"/>
<path id="Stroke 11" d="M61.0371 425.087H52.0371" stroke="#D2D8DF" stroke-width="2.921" stroke-linecap="round"/>
<path id="Stroke 12" d="M55.0371 404.087L49.0371 410.087" stroke="#D2D8DF" stroke-width="2.921" stroke-linecap="round"/>
<path id="Stroke 13" d="M517.037 5.0874V11.0874" stroke="#D2D8DF" stroke-width="2.921" stroke-linecap="round"/>
<path id="Stroke 15" d="M499.037 23.0874H505.037" stroke="#D2D8DF" stroke-width="2.921" stroke-linecap="round"/>
<path id="Stroke 16" d="M517.037 41.0874V35.0874" stroke="#D2D8DF" stroke-width="2.921" stroke-linecap="round"/>
<path id="Stroke 17" d="M532.037 23.0874H526.037" stroke="#D2D8DF" stroke-width="2.921" stroke-linecap="round"/>
<path id="Stroke 18" d="M169.037 257.087V266.087" stroke="#D2D8DF" stroke-width="2.921" stroke-linecap="round"/>
<path id="Stroke 19" d="M142.037 284.087H151.037" stroke="#D2D8DF" stroke-width="2.921" stroke-linecap="round"/>
<path id="Stroke 20" d="M169.037 308.087V299.087" stroke="#D2D8DF" stroke-width="2.921" stroke-linecap="round"/>
<path id="Stroke 21" d="M193.037 284.087H184.037" stroke="#D2D8DF" stroke-width="2.921" stroke-linecap="round"/>
<g id="Group 42">
<path id="Stroke 22" d="M814.793 584.203C821.962 584.203 827.777 590.019 827.777 597.19C827.777 604.364 821.962 610.178 814.793 610.178C807.623 610.178 801.809 604.364 801.809 597.19" stroke="#D2D8DF" stroke-width="2.921" stroke-linecap="round"/>
<path id="Fill 26" fill-rule="evenodd" clip-rule="evenodd" d="M874.219 466.376C881.928 463.971 893.746 454.543 896.481 444.398C898.962 453.366 909.361 463.971 918.743 464.774C908.181 468.513 898.083 479.623 896.481 488.351C895.391 479.455 881.424 467.673 874.219 466.376Z" fill="#EBECEE"/>
<path id="Fill 28" fill-rule="evenodd" clip-rule="evenodd" d="M82.8516 580.202C86.7075 579 92.6137 574.287 93.9814 569.215C95.2217 573.696 100.42 579 105.111 579.402C99.8316 581.27 94.7837 586.826 93.9814 591.19C93.4364 586.742 86.4528 580.849 82.8516 580.202Z" fill="#EBECEE"/>
<path id="Fill 30" fill-rule="evenodd" clip-rule="evenodd" d="M154.409 162.879C154.409 168.442 149.901 172.949 144.341 172.949C138.779 172.949 134.273 168.442 134.273 162.879C134.273 157.317 138.779 152.808 144.341 152.808C149.901 152.808 154.409 157.317 154.409 162.879Z" fill="#D1D8DF"/>
<path id="Fill 32" fill-rule="evenodd" clip-rule="evenodd" d="M826.688 189.919C826.688 199.215 819.152 206.751 809.861 206.751C800.565 206.751 793.031 199.215 793.031 189.919C793.031 180.623 800.565 173.087 809.861 173.087C819.152 173.087 826.688 180.623 826.688 189.919Z" fill="#EBECEE"/>
<path id="Fill 34" fill-rule="evenodd" clip-rule="evenodd" d="M1059.78 144.316C1059.78 151.691 1053.8 157.668 1046.43 157.668C1039.06 157.668 1033.08 151.691 1033.08 144.316C1033.08 136.941 1039.06 130.964 1046.43 130.964C1053.8 130.964 1059.78 136.941 1059.78 144.316Z" fill="#EBECEE"/>
<path id="Stroke 36" fill-rule="evenodd" clip-rule="evenodd" d="M342.567 767.889C342.567 772.538 338.801 776.306 334.153 776.306C329.507 776.306 325.74 772.538 325.74 767.889C325.74 763.239 329.507 759.472 334.153 759.472C338.801 759.472 342.567 763.239 342.567 767.889Z" stroke="#D2D8DF" stroke-width="2.921" stroke-linecap="round"/>
<path id="Stroke 38" fill-rule="evenodd" clip-rule="evenodd" d="M337.561 98.1822C337.561 103.746 333.053 108.253 327.494 108.253C321.934 108.253 317.426 103.746 317.426 98.1822C317.426 92.621 321.934 88.1118 327.494 88.1118C333.053 88.1118 337.561 92.621 337.561 98.1822Z" stroke="#D2D8DF" stroke-width="2.921" stroke-linecap="round"/>
<path id="Stroke 40" fill-rule="evenodd" clip-rule="evenodd" d="M594.37 861.094C587.936 863.543 580.736 860.31 578.289 853.877C575.841 847.442 579.071 840.238 585.507 837.792C591.937 835.344 599.138 838.574 601.585 845.009C604.035 851.444 600.803 858.646 594.37 861.094Z" stroke="#D2D8DF" stroke-width="2.921" stroke-linecap="round"/>
</g>
</g>
<g id="search">
<g id="documents">
<path id="Fill 1" fill-rule="evenodd" clip-rule="evenodd" d="M590.535 623.087H344.521C327.205 623.087 313.031 608.872 313.031 591.498V240.67C313.031 223.296 327.205 209.087 344.521 209.087H590.535C607.857 209.087 622.031 223.296 622.031 240.67V591.498C622.031 608.872 607.857 623.087 590.535 623.087Z" fill="#E0E2EE"/>
<path id="Fill 3" fill-rule="evenodd" clip-rule="evenodd" d="M569.535 638.087H323.521C306.205 638.087 292.031 623.872 292.031 606.498V255.67C292.031 238.296 306.205 224.087 323.521 224.087H569.535C586.857 224.087 601.031 238.296 601.031 255.67V606.498C601.031 623.872 586.857 638.087 569.535 638.087Z" fill="#E8EBF2"/>
<path id="Fill 5" fill-rule="evenodd" clip-rule="evenodd" d="M549.108 649.929H302.586C285.234 649.929 271.031 635.772 271.031 618.47V269.095C271.031 251.793 285.234 237.643 302.586 237.643H549.108C566.467 237.643 580.67 251.793 580.67 269.095V618.47C580.67 635.772 566.467 649.929 549.108 649.929Z" fill="#D8DBEA"/>
<path id="Fill 8" fill-rule="evenodd" clip-rule="evenodd" d="M549.108 649.929H302.586C285.234 649.929 271.031 635.772 271.031 618.47V269.095C271.031 251.793 285.234 237.643 302.586 237.643H549.108C566.467 237.643 580.67 251.793 580.67 269.095V618.47C580.67 635.772 566.467 649.929 549.108 649.929Z" fill="#F1F2F7"/>
<path id="Fill 11" fill-rule="evenodd" clip-rule="evenodd" d="M513.575 344.087H331.488C326.288 344.087 322.031 340.038 322.031 335.091C322.031 330.137 326.288 326.087 331.488 326.087H513.575C518.775 326.087 523.031 330.137 523.031 335.091C523.031 340.038 518.775 344.087 513.575 344.087Z" fill="#E0E2EE"/>
<path id="Fill 13" fill-rule="evenodd" clip-rule="evenodd" d="M513.575 398.087H331.488C326.288 398.087 322.031 394.038 322.031 389.091C322.031 384.137 326.288 380.087 331.488 380.087H513.575C518.775 380.087 523.031 384.137 523.031 389.091C523.031 394.038 518.775 398.087 513.575 398.087Z" fill="#E0E2EE"/>
<path id="Fill 15" fill-rule="evenodd" clip-rule="evenodd" d="M513.575 452.087H331.488C326.288 452.087 322.031 448.038 322.031 443.091C322.031 438.144 326.288 434.087 331.488 434.087H513.575C518.775 434.087 523.031 438.144 523.031 443.091C523.031 448.038 518.775 452.087 513.575 452.087Z" fill="#E0E2EE"/>
<path id="Fill 17" fill-rule="evenodd" clip-rule="evenodd" d="M513.575 506.087H331.488C326.288 506.087 322.031 502.038 322.031 497.091C322.031 492.137 326.288 488.087 331.488 488.087H513.575C518.775 488.087 523.031 492.137 523.031 497.091C523.031 502.038 518.775 506.087 513.575 506.087Z" fill="#E0E2EE"/>
<path id="Fill 19" fill-rule="evenodd" clip-rule="evenodd" d="M426.534 560.087H331.528C326.306 560.087 322.031 556.038 322.031 551.091C322.031 546.137 326.306 542.087 331.528 542.087H426.534C431.757 542.087 436.031 546.137 436.031 551.091C436.031 556.038 431.757 560.087 426.534 560.087Z" fill="#E0E2EE"/>
</g>
<g id="search_2">
<path id="Fill 21" fill-rule="evenodd" clip-rule="evenodd" d="M618.296 490.298C581.886 526.702 525.519 530.808 484.596 502.702C479.367 499.046 474.389 494.939 469.747 490.298C467.357 487.916 465.105 485.458 462.982 482.87C458.738 477.703 455.019 472.191 451.973 466.497C446.606 456.878 442.957 446.673 440.964 436.123C434.535 403.04 444.148 367.43 469.747 341.842C495.407 316.179 531.023 306.629 564.112 312.996C574.656 315.049 584.871 318.698 594.491 324.003C600.194 327.118 605.63 330.835 610.806 335.079C613.387 337.194 615.845 339.453 618.227 341.842C622.877 346.484 627.046 351.453 630.634 356.69C658.753 397.597 654.638 453.963 618.296 490.298Z" fill="white" fill-opacity="0.1"/>
<path id="Fill 23" fill-rule="evenodd" clip-rule="evenodd" d="M608.108 483.127C570.228 521.014 508.841 521.007 470.954 483.127C433.116 445.29 433.116 383.895 471.003 346.015C508.841 308.178 570.228 308.178 608.065 346.015C645.945 383.895 645.945 445.29 608.108 483.127ZM627.548 326.554C578.926 277.932 500.136 277.932 451.514 326.554C402.899 375.169 402.856 454.009 451.471 502.631C495.723 546.869 565.082 550.858 613.867 514.536C618.631 510.984 623.22 507.001 627.597 502.631C631.968 498.254 635.95 493.665 639.496 488.9C675.818 440.109 671.793 370.799 627.548 326.554Z" fill="#E0E2EE"/>
<path id="Fill 25" fill-rule="evenodd" clip-rule="evenodd" d="M818.898 685.912L816.856 687.954C803.352 701.465 781.237 701.465 767.726 687.954L643.031 563.259L694.203 512.087L818.898 636.782C832.409 650.293 832.409 672.401 818.898 685.912Z" fill="#E0E2EE"/>
<path id="Fill 27" fill-rule="evenodd" clip-rule="evenodd" d="M642.184 485.087L679.031 521.935L652.872 548.087L616.031 511.24C620.893 507.615 625.569 503.551 630.042 499.091C634.502 494.632 638.566 489.95 642.184 485.087Z" fill="#E0E2EE"/>
<path id="Fill 29" fill-rule="evenodd" clip-rule="evenodd" d="M817.031 635.248L766.185 686.087L757.031 676.927L807.871 626.087L817.031 635.248Z" fill="#E0E2EE"/>
<path id="Fill 31" fill-rule="evenodd" clip-rule="evenodd" d="M697.031 513.848L644.793 566.087L637.031 558.327L689.27 506.087L697.031 513.848Z" fill="#E0E2EE"/>
<path id="Fill 33" fill-rule="evenodd" clip-rule="evenodd" d="M583.031 332.983L454.921 461.087C450.096 452.441 446.816 443.265 445.031 433.781L555.724 323.087C565.201 324.94 574.384 328.214 583.031 332.983Z" fill="white" fill-opacity="0.5"/>
<path id="Fill 35" fill-rule="evenodd" clip-rule="evenodd" d="M625.031 363.433L486.53 494.087C481.57 490.822 476.849 487.147 472.447 482.994C470.18 480.856 468.037 478.663 466.031 476.348L606.22 344.087C608.674 345.986 611.006 348.008 613.265 350.146C617.667 354.3 621.628 358.747 625.031 363.433Z" fill="white" fill-opacity="0.5"/>
</g>
</g>
</g>
</svg>
