<svg width="22" height="23" viewBox="0 0 22 23" fill="none" xmlns="http://www.w3.org/2000/svg">
<g id="ic:outline-lock">
<path id="Vector" d="M16.4679 7.95173H15.5758V6.16753C15.5758 3.70533 13.5775 1.70703 11.1153 1.70703C8.65312 1.70703 6.65481 3.70533 6.65481 6.16753V7.95173H5.76271C4.7814 7.95173 3.97852 8.75462 3.97852 9.73592V18.6569C3.97852 19.6382 4.7814 20.4411 5.76271 20.4411H16.4679C17.4492 20.4411 18.2521 19.6382 18.2521 18.6569V9.73592C18.2521 8.75462 17.4492 7.95173 16.4679 7.95173ZM8.43901 6.16753C8.43901 4.68664 9.63443 3.49123 11.1153 3.49123C12.5962 3.49123 13.7916 4.68664 13.7916 6.16753V7.95173H8.43901V6.16753ZM16.4679 18.6569H5.76271V9.73592H16.4679V18.6569ZM11.1153 15.9806C12.0966 15.9806 12.8995 15.1777 12.8995 14.1964C12.8995 13.2151 12.0966 12.4122 11.1153 12.4122C10.134 12.4122 9.33111 13.2151 9.33111 14.1964C9.33111 15.1777 10.134 15.9806 11.1153 15.9806Z" fill="#78909C"/>
</g>
</svg>
