<svg width="10" height="10" viewBox="0 0 10 10" fill="none" xmlns="http://www.w3.org/2000/svg">
<path d="M9.53148 2.1875V4.6875C9.53148 4.81182 9.48209 4.93105 9.39418 5.01896C9.30628 5.10686 9.18705 5.15625 9.06273 5.15625C8.93841 5.15625 8.81918 5.10686 8.73127 5.01896C8.64336 4.93105 8.59398 4.81182 8.59398 4.6875V3.32031L5.64437 6.27031C5.60082 6.31401 5.54907 6.34869 5.4921 6.37235C5.43512 6.396 5.37403 6.40818 5.31234 6.40818C5.25064 6.40818 5.18956 6.396 5.13258 6.37235C5.0756 6.34869 5.02385 6.31401 4.98031 6.27031L3.75023 5.03906L1.26937 7.51914C1.18131 7.6072 1.06187 7.65667 0.937337 7.65667C0.812801 7.65667 0.693365 7.6072 0.605305 7.51914C0.517245 7.43108 0.467773 7.31165 0.467773 7.18711C0.467773 7.06257 0.517245 6.94314 0.605305 6.85508L3.41781 4.04258C3.46135 3.99888 3.5131 3.9642 3.57008 3.94055C3.62706 3.91689 3.68814 3.90471 3.74984 3.90471C3.81153 3.90471 3.87262 3.91689 3.9296 3.94055C3.98657 3.9642 4.03832 3.99888 4.08187 4.04258L5.31273 5.27344L7.92992 2.65625H6.56273C6.43841 2.65625 6.31918 2.60686 6.23127 2.51896C6.14336 2.43105 6.09398 2.31182 6.09398 2.1875C6.09398 2.06318 6.14336 1.94395 6.23127 1.85604C6.31918 1.76814 6.43841 1.71875 6.56273 1.71875H9.06273C9.18705 1.71875 9.30628 1.76814 9.39418 1.85604C9.48209 1.94395 9.53148 2.06318 9.53148 2.1875Z" fill="#2BBFAE"/>
</svg>
