<svg width="16" height="15" viewBox="0 0 16 15" fill="none" xmlns="http://www.w3.org/2000/svg">
<path d="M8 1.40625V13.5938" stroke="#252C32" stroke-width="1.5" stroke-linecap="round" stroke-linejoin="round"/>
<path d="M11.2812 5.15625C11.2813 4.84846 11.2206 4.54369 11.1028 4.25934C10.9851 3.97498 10.8124 3.71661 10.5948 3.49897C10.3771 3.28133 10.1188 3.10869 9.83441 2.99091C9.55006 2.87312 9.24529 2.8125 8.9375 2.8125H6.82812C6.20652 2.8125 5.61038 3.05943 5.17084 3.49897C4.73131 3.93851 4.48438 4.53465 4.48438 5.15625C4.48438 5.77785 4.73131 6.37399 5.17084 6.81353C5.61038 7.25307 6.20652 7.5 6.82812 7.5H9.40625C10.0279 7.5 10.624 7.74693 11.0635 8.18647C11.5031 8.62601 11.75 9.22215 11.75 9.84375C11.75 10.4654 11.5031 11.0615 11.0635 11.501C10.624 11.9406 10.0279 12.1875 9.40625 12.1875H6.59375C5.97215 12.1875 5.37601 11.9406 4.93647 11.501C4.49693 11.0615 4.25 10.4654 4.25 9.84375" stroke="#252C32" stroke-width="1.5" stroke-linecap="round" stroke-linejoin="round"/>
</svg>
