<svg xmlns="http://www.w3.org/2000/svg" width="40" height="41" viewBox="0 0 40 41" fill="none">
  <path d="M20.0008 1.51978C9.39678 1.51978 0.800781 10.1158 0.800781 20.7198C0.800781 31.3238 9.39678 39.9198 20.0008 39.9198C30.6048 39.9198 39.2008 31.3238 39.2008 20.7198C39.2008 10.1158 30.6048 1.51978 20.0008 1.51978ZM27.8108 17.2478C27.8188 17.4118 27.8208 17.5758 27.8208 17.7358C27.8208 22.7358 24.0188 28.4978 17.0628 28.4978C15.0074 28.5012 12.9947 27.9109 11.2668 26.7978C11.5608 26.8338 11.8628 26.8478 12.1688 26.8478C13.9408 26.8478 15.5708 26.2458 16.8648 25.2298C16.0762 25.2143 15.3121 24.9532 14.679 24.4828C14.0459 24.0125 13.5753 23.3563 13.3328 22.6058C13.8991 22.7135 14.4825 22.6909 15.0388 22.5398C14.1829 22.3667 13.4132 21.9029 12.8602 21.2271C12.3072 20.5513 12.005 19.705 12.0048 18.8318V18.7858C12.5148 19.0678 13.0988 19.2398 13.7188 19.2598C12.9164 18.7256 12.3484 17.9051 12.1309 16.966C11.9134 16.027 12.0629 15.0403 12.5488 14.2078C13.4987 15.3758 14.6833 16.3313 16.0259 17.0124C17.3685 17.6935 18.8392 18.0851 20.3428 18.1618C20.1516 17.3504 20.2339 16.4986 20.5768 15.7388C20.9197 14.979 21.504 14.3538 22.2389 13.9603C22.9738 13.5669 23.8181 13.4272 24.6406 13.5631C25.463 13.699 26.2175 14.1028 26.7868 14.7118C27.6331 14.5443 28.4447 14.2339 29.1868 13.7938C28.9047 14.67 28.3141 15.4141 27.5248 15.8878C28.2745 15.7975 29.0065 15.5959 29.6968 15.2898C29.1898 16.0496 28.5511 16.7127 27.8108 17.2478Z" fill="#3D445C"/>
</svg>