<svg width="20" height="21" viewBox="0 0 20 21" fill="none" xmlns="http://www.w3.org/2000/svg">
<g clip-path="url(#clip0_5479_9938)">
<path d="M13.3326 13.8332L9.99923 10.4999M9.99923 10.4999L6.6659 13.8332M9.99923 10.4999V17.9999M16.9909 15.8249C17.8037 15.3818 18.4458 14.6806 18.8158 13.8321C19.1858 12.9835 19.2627 12.0359 19.0344 11.1388C18.8061 10.2417 18.2855 9.44616 17.5548 8.87778C16.8241 8.30939 15.925 8.00052 14.9992 7.9999H13.9492C13.697 7.02427 13.2269 6.11852 12.5742 5.35073C11.9215 4.58295 11.1033 3.97311 10.181 3.56708C9.2587 3.16104 8.25636 2.96937 7.24933 3.00647C6.2423 3.04358 5.25679 3.30849 4.36688 3.78129C3.47697 4.2541 2.70583 4.92249 2.11142 5.73622C1.51701 6.54996 1.11481 7.48785 0.935051 8.4794C0.755293 9.47095 0.802655 10.4903 1.07358 11.461C1.3445 12.4316 1.83194 13.3281 2.49923 14.0832" stroke="#475467" stroke-width="1.66667" stroke-linecap="round" stroke-linejoin="round"/>
</g>
<defs>
<clipPath id="clip0_5479_9938">
<rect width="20" height="20" fill="white" transform="translate(0 0.5)"/>
</clipPath>
</defs>
</svg>
