<svg width="15" height="15" viewBox="0 0 15 15" fill="none" xmlns="http://www.w3.org/2000/svg">
<path d="M4.6875 11.7188C5.72303 11.7188 6.5625 10.8793 6.5625 9.84375C6.5625 8.80822 5.72303 7.96875 4.6875 7.96875C3.65197 7.96875 2.8125 8.80822 2.8125 9.84375C2.8125 10.8793 3.65197 11.7188 4.6875 11.7188Z" stroke="#252C32" stroke-width="1.5" stroke-linecap="round" stroke-linejoin="round"/>
<path d="M1.875 13.125C2.20247 12.6884 2.6271 12.334 3.11526 12.0899C3.60343 11.8458 4.14172 11.7188 4.6875 11.7188C5.23328 11.7188 5.77157 11.8458 6.25974 12.0899C6.7479 12.334 7.17253 12.6884 7.5 13.125" stroke="#252C32" stroke-width="1.5" stroke-linecap="round" stroke-linejoin="round"/>
<path d="M4.6875 5.625C5.72303 5.625 6.5625 4.78553 6.5625 3.75C6.5625 2.71447 5.72303 1.875 4.6875 1.875C3.65197 1.875 2.8125 2.71447 2.8125 3.75C2.8125 4.78553 3.65197 5.625 4.6875 5.625Z" stroke="#252C32" stroke-width="1.5" stroke-linecap="round" stroke-linejoin="round"/>
<path d="M1.875 7.03125C2.20247 6.59462 2.6271 6.24024 3.11526 5.99615C3.60343 5.75207 4.14172 5.625 4.6875 5.625C5.23328 5.625 5.77157 5.75207 6.25974 5.99615C6.7479 6.24024 7.17253 6.59462 7.5 7.03125" stroke="#252C32" stroke-width="1.5" stroke-linecap="round" stroke-linejoin="round"/>
<path d="M10.3125 11.7188C11.348 11.7188 12.1875 10.8793 12.1875 9.84375C12.1875 8.80822 11.348 7.96875 10.3125 7.96875C9.27697 7.96875 8.4375 8.80822 8.4375 9.84375C8.4375 10.8793 9.27697 11.7188 10.3125 11.7188Z" stroke="#252C32" stroke-width="1.5" stroke-linecap="round" stroke-linejoin="round"/>
<path d="M7.5 13.125C7.82747 12.6884 8.2521 12.334 8.74027 12.0899C9.22843 11.8458 9.76672 11.7188 10.3125 11.7188C10.8583 11.7188 11.3966 11.8458 11.8847 12.0899C12.3729 12.334 12.7975 12.6884 13.125 13.125" stroke="#252C32" stroke-width="1.5" stroke-linecap="round" stroke-linejoin="round"/>
<path d="M10.3125 5.625C11.348 5.625 12.1875 4.78553 12.1875 3.75C12.1875 2.71447 11.348 1.875 10.3125 1.875C9.27697 1.875 8.4375 2.71447 8.4375 3.75C8.4375 4.78553 9.27697 5.625 10.3125 5.625Z" stroke="#252C32" stroke-width="1.5" stroke-linecap="round" stroke-linejoin="round"/>
<path d="M7.5 7.03125C7.82747 6.59462 8.2521 6.24024 8.74027 5.99615C9.22843 5.75207 9.76672 5.625 10.3125 5.625C10.8583 5.625 11.3966 5.75207 11.8847 5.99615C12.3729 6.24024 12.7975 6.59462 13.125 7.03125" stroke="#252C32" stroke-width="1.5" stroke-linecap="round" stroke-linejoin="round"/>
</svg>
